<svg width="541" height="402" viewBox="0 0 541 402" fill="none" xmlns="http://www.w3.org/2000/svg">
    <path
        d="M461.833 398.982C467.573 385.535 471.621 370.9 469.705 356.416C469.048 351.505 467.619 346.728 465.47 342.263C463.739 338.624 461.504 335.246 458.83 332.23C457.905 331.167 456.637 330.461 455.245 330.238C453.854 330.014 452.428 330.286 451.217 331.006C451.03 331.114 450.842 331.229 450.67 331.352C449.732 332.012 448.992 332.916 448.531 333.966C448.441 334.167 448.367 334.374 448.307 334.586C448.043 335.47 447.972 336.401 448.098 337.315C449.108 344.77 448.889 352.339 447.45 359.722C447.083 361.602 446.634 363.465 446.103 365.311C444.912 363.824 443.645 362.398 442.308 361.04C438.841 357.527 434.843 354.581 430.46 352.311H430.453C430.431 352.296 430.417 352.289 430.395 352.275C425.08 349.567 417.993 350.69 413.852 352.534C413.578 352.649 413.319 352.779 413.067 352.901C410.906 354.011 409.833 355.285 410.755 356.121C410.964 356.301 411.172 356.488 411.367 356.675C417.645 362.48 422.789 369.401 426.535 377.087V377.094C428.024 380.154 429.278 383.323 430.287 386.573C431.677 391.06 432.83 396.037 435.545 399.695C435.823 400.081 436.123 400.449 436.445 400.797L460.702 400.603C460.76 400.574 460.81 400.553 460.868 400.524L461.833 400.56C461.797 400.387 461.754 400.214 461.711 400.041V400.027C461.689 399.933 461.66 399.832 461.639 399.746C461.617 399.674 461.603 399.609 461.588 399.551C461.631 399.443 461.675 399.342 461.725 399.234C461.761 399.148 461.797 399.069 461.833 398.982Z"
        fill="#F0F0F0" />
    <path
        d="M461.71 400.027C461.703 400.081 461.682 400.132 461.649 400.175C461.616 400.218 461.572 400.253 461.523 400.274C461.473 400.296 461.418 400.304 461.364 400.299C461.31 400.293 461.258 400.274 461.213 400.243C460.217 399.52 459.123 398.94 457.965 398.521C457.958 398.514 457.958 398.521 457.958 398.521C456.497 397.996 454.993 397.596 453.464 397.326C453.449 397.326 453.442 397.319 453.428 397.319C452.808 397.196 452.189 397.088 451.57 396.973C448.559 396.418 445.498 395.748 442.891 394.034C441.83 393.377 440.92 392.503 440.221 391.469C439.522 390.435 439.05 389.264 438.836 388.035C438.454 385.622 438.937 383.195 439.139 380.789C439.153 380.616 439.167 380.436 439.175 380.263C439.189 380.04 439.196 379.824 439.196 379.608C439.27 377.424 438.831 375.253 437.914 373.27C436.736 370.895 435.19 368.722 433.333 366.831C432.376 365.801 431.377 364.809 430.337 363.856H430.33C430.287 363.813 430.251 363.777 430.208 363.741C430.208 363.734 430.201 363.727 430.193 363.719C425.749 359.681 420.708 356.353 415.249 353.852C415.054 353.766 414.853 353.672 414.651 353.586C414.125 353.348 413.599 353.125 413.066 352.901C413.318 352.779 413.578 352.649 413.851 352.534C419.941 355.11 425.56 358.678 430.481 363.093C430.647 363.237 430.813 363.388 430.971 363.539C432.217 364.692 433.403 365.899 434.529 367.162C436.33 369.102 437.788 371.332 438.843 373.76C439.617 375.724 439.958 377.831 439.844 379.939C439.83 380.343 439.801 380.746 439.765 381.156C439.542 383.584 439.045 386.09 439.599 388.517C440.233 391.283 442.38 393.213 444.871 394.394C446.521 395.13 448.252 395.667 450.028 395.993C453.701 396.764 457.497 397.138 460.709 399.112H460.716C460.767 399.148 460.817 399.177 460.86 399.206C460.868 399.206 460.868 399.206 460.868 399.213C461.1 399.351 461.323 399.502 461.537 399.667C461.552 399.674 461.566 399.688 461.581 399.695C461.601 399.71 461.621 399.727 461.638 399.746C461.672 399.784 461.695 399.829 461.708 399.878C461.72 399.926 461.721 399.977 461.71 400.027Z"
        fill="white" />
    <path
        d="M430.782 363.786C432.091 362.163 432.78 360.128 432.727 358.043C432.673 355.959 431.881 353.961 430.491 352.407C430.208 352.094 429.708 352.518 429.991 352.832C431.288 354.276 432.026 356.137 432.072 358.078C432.117 360.019 431.468 361.913 430.24 363.417C429.974 363.744 430.517 364.112 430.782 363.786Z"
        fill="white" />
    <path
        d="M439.405 379.586C435.171 380.078 430.907 378.956 427.464 376.444C427.123 376.195 426.754 376.737 427.095 376.986C430.683 379.594 435.122 380.752 439.527 380.23C439.947 380.18 439.822 379.536 439.405 379.586Z"
        fill="white" />
    <path
        d="M415.292 353.773C415.278 353.802 415.263 353.823 415.249 353.852C414.852 354.581 414.298 355.213 413.626 355.702C412.955 356.19 412.183 356.523 411.367 356.676C411.172 356.488 410.964 356.301 410.755 356.121C410.787 356.1 410.824 356.088 410.863 356.085C411.647 355.999 412.4 355.727 413.058 355.292C413.717 354.858 414.263 354.273 414.651 353.586C414.687 353.528 414.723 353.463 414.752 353.406C414.776 353.37 414.807 353.339 414.842 353.316C414.878 353.292 414.919 353.276 414.961 353.268C415.003 353.26 415.046 353.26 415.088 353.269C415.13 353.278 415.17 353.295 415.206 353.319C415.275 353.37 415.322 353.445 415.338 353.529C415.354 353.613 415.338 353.7 415.292 353.773Z"
        fill="white" />
    <path
        d="M52.7643 3.92038C39.8145 3.93498 27.3993 9.08585 18.2424 18.2429C9.08552 27.4 3.93477 39.8155 3.92017 52.7656V239.956C3.93477 252.906 9.08552 265.321 18.2424 274.479C27.3993 283.636 39.8145 288.786 52.7643 288.801H488.235C501.185 288.786 513.6 283.636 522.757 274.479C531.914 265.321 537.065 252.906 537.08 239.956V52.7656C537.065 39.8155 531.914 27.4 522.757 18.2429C513.6 9.08585 501.185 3.93498 488.235 3.92038H52.7643Z"
        fill="white" />
    <path
        d="M488.236 292.721H52.7644C38.7752 292.706 25.3635 287.141 15.4717 277.249C5.57989 267.357 0.0157458 253.945 0 239.956V52.7656C0.0157458 38.7761 5.57989 25.3641 15.4717 15.4721C25.3635 5.58006 38.7752 0.0157919 52.7644 4.57764e-05H488.236C502.225 0.0157824 515.636 5.58005 525.528 15.4721C535.42 25.3641 540.984 38.7761 541 52.7656V239.956C540.984 253.945 535.42 267.357 525.528 277.249C515.636 287.141 502.225 292.706 488.236 292.721V292.721ZM52.7644 7.84077C40.854 7.85424 29.4352 12.5917 21.0133 21.0138C12.5914 29.4359 7.85402 40.8549 7.84055 52.7656V239.956C7.85402 251.867 12.5914 263.286 21.0133 271.708C29.4352 280.13 40.854 284.867 52.7644 284.881H488.236C500.146 284.867 511.565 280.13 519.987 271.708C528.409 263.286 533.146 251.867 533.159 239.956V52.7656C533.146 40.8549 528.409 29.4359 519.987 21.0138C511.565 12.5917 500.146 7.85424 488.236 7.84077H52.7644Z"
        fill="#E6E6E6" />
    <path
        d="M271.669 42.6762H64.5735C60.1535 42.6838 55.9168 44.443 52.7914 47.5685C49.666 50.694 47.9068 54.9308 47.8992 59.3509V152.76C47.8974 153.751 47.9893 154.74 48.1737 155.714C48.239 156.158 48.3435 156.589 48.448 157.021C49.3967 160.575 51.4907 163.718 54.4058 165.962C57.321 168.206 60.8946 169.427 64.5735 169.435H271.669C272.009 169.435 272.349 169.422 272.676 169.396H272.911V169.383C272.976 169.385 273.042 169.381 273.107 169.37C273.172 169.37 273.251 169.357 273.316 169.357C273.338 169.359 273.361 169.354 273.381 169.344C273.525 169.331 273.669 169.317 273.799 169.304C274.035 169.265 274.27 169.239 274.492 169.2C274.521 169.189 274.552 169.185 274.583 169.187C274.624 169.167 274.669 169.158 274.714 169.161C274.719 169.156 274.725 169.152 274.732 169.15C274.739 169.147 274.746 169.147 274.753 169.148C274.897 169.121 275.041 169.095 275.185 169.056C275.264 169.045 275.343 169.028 275.42 169.004C275.707 168.939 275.995 168.873 276.269 168.782C276.4 168.742 276.517 168.716 276.648 168.677C276.818 168.625 277.001 168.56 277.171 168.494C277.26 168.47 277.347 168.439 277.432 168.403C277.442 168.403 277.452 168.4 277.461 168.396C277.47 168.391 277.478 168.385 277.484 168.377C277.862 168.243 278.233 168.091 278.595 167.919C278.909 167.776 279.209 167.619 279.51 167.462C279.628 167.41 279.732 167.344 279.85 167.279C279.879 167.266 279.905 167.248 279.928 167.227C280.229 167.044 280.529 166.861 280.817 166.691C280.83 166.678 280.83 166.665 280.843 166.665C280.845 166.665 280.846 166.664 280.848 166.664C280.849 166.663 280.851 166.662 280.852 166.661C280.853 166.66 280.854 166.658 280.855 166.657C280.856 166.655 280.856 166.653 280.856 166.652C281.163 166.459 281.46 166.249 281.745 166.024H281.758C281.836 165.959 281.901 165.907 281.967 165.855C282.058 165.789 282.15 165.711 282.228 165.645C282.385 165.515 282.542 165.384 282.685 165.253C282.774 165.186 282.857 165.112 282.934 165.031C283.156 164.835 283.365 164.626 283.574 164.417C283.685 164.31 283.79 164.197 283.888 164.077C284.05 163.921 284.203 163.756 284.345 163.581C284.476 163.411 284.619 163.241 284.75 163.071C284.905 162.893 285.049 162.705 285.181 162.509C285.416 162.195 285.626 161.882 285.835 161.542C286.005 161.268 286.174 160.98 286.331 160.693C286.41 160.549 286.488 160.392 286.566 160.235C286.58 160.235 286.58 160.222 286.58 160.209C286.723 159.935 286.854 159.66 286.972 159.373C287.024 159.255 287.076 159.151 287.115 159.033C287.22 158.811 287.298 158.576 287.39 158.34C287.533 157.909 287.677 157.465 287.795 157.021C287.899 156.589 288.004 156.158 288.069 155.714C288.254 154.74 288.345 153.751 288.344 152.76V59.3509C288.336 54.9308 286.577 50.694 283.451 47.5685C280.326 44.443 276.089 42.6838 271.669 42.6762V42.6762Z"
        fill="#1890FF" />
    <path opacity="0.3" d="M288.344 69.4655H47.8992V70.7722H288.344V69.4655Z" fill="white" />
    <path opacity="0.3" d="M288.344 83.8402H47.8992V85.147H288.344V83.8402Z" fill="white" />
    <path opacity="0.3" d="M288.344 98.2149H47.8992V99.5217H288.344V98.2149Z" fill="white" />
    <path opacity="0.3" d="M288.344 112.59H47.8992V113.896H288.344V112.59Z" fill="white" />
    <path opacity="0.3" d="M288.344 126.964H47.8992V128.271H288.344V126.964Z" fill="white" />
    <path opacity="0.3" d="M288.344 141.339H47.8992V142.646H288.344V141.339Z" fill="white" />
    <path opacity="0.3"
        d="M288.069 155.714C288.004 156.158 287.899 156.589 287.795 157.021H48.0821C48.0033 156.589 47.951 156.152 47.9253 155.714H288.069Z"
        fill="white" />
    <g opacity="0.1">
        <path opacity="0.1"
            d="M288.344 132.531V152.76C288.345 153.751 288.254 154.74 288.069 155.714C288.004 156.158 287.899 156.589 287.795 157.021C287.677 157.465 287.533 157.909 287.39 158.34C287.298 158.576 287.22 158.811 287.115 159.033C287.076 159.151 287.024 159.255 286.972 159.373C286.854 159.66 286.723 159.935 286.58 160.209C286.58 160.222 286.58 160.235 286.566 160.235C286.488 160.392 286.41 160.549 286.331 160.693C286.174 160.98 286.005 161.268 285.835 161.542C285.626 161.882 285.416 162.195 285.181 162.509C285.049 162.705 284.905 162.893 284.75 163.071C284.619 163.241 284.476 163.411 284.345 163.581C284.203 163.755 284.05 163.921 283.888 164.077C283.79 164.197 283.685 164.31 283.574 164.417C283.365 164.626 283.156 164.835 282.934 165.031C282.857 165.112 282.774 165.186 282.685 165.253C282.542 165.384 282.385 165.515 282.228 165.645C282.15 165.711 282.058 165.789 281.967 165.854C281.901 165.907 281.836 165.959 281.758 166.024H281.744C281.46 166.249 281.163 166.459 280.856 166.652C280.856 166.653 280.856 166.655 280.855 166.657C280.854 166.658 280.853 166.66 280.852 166.661C280.851 166.662 280.849 166.663 280.848 166.664C280.846 166.664 280.845 166.665 280.843 166.665C280.83 166.665 280.83 166.678 280.817 166.691C280.634 166.821 280.438 166.939 280.242 167.057C280.137 167.122 280.033 167.174 279.928 167.227C279.905 167.248 279.879 167.266 279.85 167.279C279.732 167.344 279.628 167.41 279.51 167.462C279.209 167.619 278.909 167.775 278.595 167.919C278.233 168.091 277.862 168.243 277.484 168.377C277.478 168.385 277.47 168.391 277.461 168.395C277.452 168.4 277.442 168.402 277.432 168.403C277.347 168.439 277.26 168.47 277.171 168.494C277.001 168.559 276.818 168.625 276.648 168.677C276.517 168.716 276.4 168.742 276.269 168.782C275.995 168.873 275.707 168.938 275.42 169.004C275.343 169.027 275.264 169.045 275.185 169.056C275.041 169.095 274.897 169.121 274.753 169.147C274.746 169.147 274.739 169.147 274.732 169.15C274.725 169.152 274.719 169.156 274.714 169.161C274.669 169.158 274.624 169.167 274.583 169.187C274.552 169.185 274.521 169.189 274.492 169.2C274.27 169.239 274.035 169.265 273.799 169.304C273.669 169.317 273.525 169.33 273.381 169.343C273.361 169.354 273.338 169.359 273.316 169.357C273.172 169.37 273.041 169.383 272.911 169.396H272.885C272.741 169.409 272.597 169.409 272.453 169.422C272.192 169.435 271.931 169.435 271.669 169.435H64.5735C60.8946 169.427 57.321 168.206 54.4058 165.962C51.4907 163.718 49.3967 160.575 48.448 157.02H48.0821C48.0034 156.588 47.951 156.152 47.9253 155.714C47.9123 155.465 47.8992 155.204 47.8992 154.956V132.165C50.6419 132.246 53.3618 132.69 55.988 133.485C63.0968 135.654 70.0096 139.327 77.432 139.327C78.02 139.327 78.6343 139.3 79.2353 139.248C87.0498 138.595 93.1262 133.747 98.1834 128.271C98.5885 127.84 98.9936 127.409 99.3726 126.964C100.327 125.906 101.241 124.821 102.13 123.75C104.969 120.164 108.151 116.864 111.63 113.896C112.192 113.439 112.754 113.008 113.329 112.59C116.703 110.073 120.676 108.483 124.855 107.977C125.39 107.924 125.926 107.885 126.462 107.872C132.055 107.702 137.308 109.715 142.091 112.59C142.783 113.008 143.476 113.439 144.142 113.896C146.429 115.447 148.632 117.117 150.742 118.901C153.998 121.762 157.4 124.454 160.934 126.964C161.196 127.147 161.457 127.33 161.718 127.487C162.123 127.761 162.542 128.023 162.96 128.271C166.539 130.572 170.565 132.091 174.773 132.727C174.917 132.753 175.073 132.78 175.23 132.793C182.038 133.59 188.376 131.577 194.165 128.271C194.884 127.853 195.616 127.422 196.321 126.964C200.843 123.959 205.082 120.547 208.984 116.771C210.003 115.817 211.036 114.85 212.107 113.896C212.591 113.465 213.074 113.021 213.571 112.59C221.333 105.768 230.284 99.5217 240.856 99.5217C241.3 99.5217 241.758 99.5348 242.215 99.5609C249.82 99.9268 256.498 103.612 262.104 108.29C263.732 109.641 265.29 111.077 266.769 112.59C266.834 112.655 266.887 112.707 266.952 112.773C267.318 113.138 267.684 113.517 268.023 113.896C272.205 118.274 276.06 122.952 280.608 126.964C281.104 127.422 281.614 127.853 282.136 128.271C283.705 129.573 285.364 130.761 287.102 131.826C287.507 132.074 287.925 132.309 288.344 132.531Z"
            fill="black" />
    </g>
    <g opacity="0.1">
        <path opacity="0.1"
            d="M288.344 112.786V152.76C288.345 153.751 288.254 154.74 288.069 155.714C288.004 156.158 287.899 156.589 287.795 157.02C287.677 157.465 287.533 157.909 287.39 158.34C287.298 158.576 287.22 158.811 287.115 159.033C287.076 159.151 287.024 159.255 286.972 159.373C286.854 159.66 286.723 159.935 286.58 160.209C286.58 160.222 286.58 160.235 286.566 160.235C286.488 160.392 286.41 160.549 286.331 160.693C286.174 160.98 286.005 161.268 285.835 161.542C285.626 161.882 285.416 162.195 285.181 162.509C285.049 162.705 284.905 162.893 284.75 163.071C284.619 163.241 284.476 163.411 284.345 163.581C284.203 163.755 284.05 163.921 283.888 164.077C283.79 164.197 283.685 164.31 283.574 164.417C283.365 164.626 283.156 164.835 282.934 165.031C282.857 165.112 282.774 165.186 282.685 165.253C282.542 165.384 282.385 165.515 282.228 165.645C282.15 165.711 282.058 165.789 281.967 165.854C281.901 165.907 281.836 165.959 281.758 166.024H281.744C281.46 166.249 281.163 166.459 280.856 166.652C280.856 166.653 280.856 166.655 280.855 166.657C280.854 166.658 280.853 166.66 280.852 166.661C280.851 166.662 280.849 166.663 280.848 166.664C280.846 166.664 280.845 166.665 280.843 166.665C280.83 166.665 280.83 166.678 280.817 166.691C280.634 166.821 280.438 166.939 280.242 167.057C280.137 167.122 280.033 167.174 279.928 167.227C279.905 167.248 279.879 167.266 279.85 167.279C279.732 167.344 279.628 167.41 279.51 167.462C279.209 167.619 278.909 167.775 278.595 167.919C278.233 168.09 277.862 168.243 277.484 168.377C277.478 168.384 277.47 168.391 277.461 168.395C277.452 168.4 277.442 168.402 277.432 168.403C277.347 168.439 277.26 168.469 277.171 168.494C277.001 168.559 276.818 168.625 276.648 168.677C276.517 168.716 276.4 168.742 276.269 168.782C275.995 168.873 275.707 168.938 275.42 169.004C275.343 169.027 275.264 169.045 275.185 169.056C275.041 169.095 274.897 169.121 274.753 169.147C274.746 169.147 274.739 169.147 274.732 169.15C274.725 169.152 274.719 169.156 274.714 169.16C274.669 169.158 274.624 169.167 274.583 169.187C274.552 169.185 274.521 169.189 274.492 169.2C274.27 169.239 274.035 169.265 273.799 169.304C273.669 169.317 273.525 169.33 273.381 169.343C273.361 169.354 273.338 169.359 273.316 169.357C273.251 169.357 273.172 169.37 273.107 169.37C273.042 169.38 272.976 169.385 272.911 169.383C272.855 169.394 272.798 169.398 272.741 169.396H272.676C272.61 169.409 272.532 169.409 272.453 169.422C272.192 169.435 271.931 169.435 271.669 169.435H64.5735C60.8946 169.427 57.321 168.206 54.4058 165.962C51.4907 163.718 49.3967 160.575 48.448 157.02C48.3435 156.589 48.239 156.158 48.1737 155.714C47.9893 154.74 47.8974 153.751 47.8992 152.76V129.486C48.3565 129.094 48.8009 128.689 49.2452 128.271C49.7025 127.84 50.1468 127.409 50.5911 126.964C54.4836 122.913 58.0287 118.542 61.189 113.896C61.2935 113.753 61.3981 113.622 61.4896 113.478C61.6986 113.178 61.9077 112.89 62.1298 112.59C65.2991 107.951 68.8436 103.58 72.7277 99.5217C73.172 99.0773 73.6163 98.6461 74.0737 98.2149C78.9348 93.6411 84.4755 90.2304 91.0093 89.4201C100.013 88.2963 108.389 92.465 115.799 98.2149C116.347 98.6461 116.883 99.0773 117.419 99.5217C119.954 101.586 122.359 103.834 124.632 106.069C125.233 106.67 125.848 107.271 126.462 107.872C128.043 109.453 129.663 111.035 131.297 112.59C131.767 113.034 132.225 113.465 132.695 113.896C139.229 119.947 146.298 125.265 154.701 126.964C155.276 127.082 155.864 127.186 156.452 127.265C159.627 127.688 162.849 127.586 165.991 126.964C166.514 126.873 167.024 126.755 167.546 126.625C175.413 124.677 182.705 119.777 189.304 113.896C189.774 113.465 190.258 113.034 190.728 112.59C194.1 109.466 197.301 106.121 200.294 102.828C201.287 101.73 202.306 100.619 203.326 99.5217C203.744 99.0904 204.149 98.6591 204.554 98.2149C208.927 93.4486 213.711 89.0758 218.85 85.147C219.464 84.6895 220.078 84.2583 220.692 83.8402C227.605 79.1227 235.158 76.0909 243.456 76.5744C250.304 76.9664 256.563 79.789 262.195 83.8402C262.77 84.2583 263.345 84.6895 263.92 85.147C268.206 88.5902 272.118 92.4754 275.59 96.7382C275.995 97.2217 276.4 97.7183 276.805 98.2149C277.014 98.4632 277.21 98.7246 277.419 98.9728L277.85 99.5217C281.313 103.847 284.645 108.343 288.187 112.59L288.344 112.786Z"
            fill="black" />
    </g>
    <g opacity="0.1">
        <path opacity="0.1"
            d="M288.344 96.2808V152.76C288.345 153.751 288.254 154.74 288.069 155.714C288.004 156.158 287.899 156.589 287.795 157.021C287.677 157.465 287.533 157.909 287.39 158.34C287.298 158.576 287.22 158.811 287.115 159.033C287.076 159.151 287.024 159.255 286.972 159.373C286.854 159.66 286.723 159.935 286.58 160.209C286.58 160.222 286.58 160.235 286.566 160.235C286.488 160.392 286.41 160.549 286.331 160.693C286.174 160.98 286.005 161.268 285.835 161.542C285.626 161.882 285.416 162.195 285.181 162.509C285.049 162.705 284.905 162.893 284.75 163.071C284.619 163.241 284.476 163.411 284.345 163.581C284.203 163.755 284.05 163.921 283.888 164.077C283.79 164.197 283.685 164.31 283.574 164.417C283.365 164.626 283.156 164.835 282.934 165.031C282.857 165.112 282.774 165.186 282.685 165.253C282.542 165.384 282.385 165.515 282.228 165.645C282.15 165.711 282.058 165.789 281.967 165.854C281.901 165.907 281.836 165.959 281.758 166.024H281.744C281.46 166.249 281.163 166.459 280.856 166.652C280.856 166.653 280.856 166.655 280.855 166.657C280.854 166.658 280.853 166.66 280.852 166.661C280.851 166.662 280.849 166.663 280.848 166.664C280.846 166.664 280.845 166.665 280.843 166.665C280.83 166.665 280.83 166.678 280.817 166.691C280.634 166.821 280.438 166.939 280.242 167.057C280.137 167.122 280.033 167.174 279.928 167.227C279.905 167.248 279.879 167.266 279.85 167.279C279.732 167.344 279.628 167.41 279.51 167.462C279.209 167.619 278.909 167.775 278.595 167.919C278.233 168.091 277.862 168.243 277.484 168.377C277.478 168.385 277.47 168.391 277.461 168.395C277.452 168.4 277.442 168.402 277.432 168.403C277.347 168.439 277.26 168.47 277.171 168.494C277.001 168.559 276.818 168.625 276.648 168.677C276.517 168.716 276.4 168.742 276.269 168.782C275.995 168.873 275.707 168.938 275.42 169.004C275.343 169.027 275.264 169.045 275.185 169.056C275.041 169.095 274.897 169.121 274.753 169.147C274.746 169.147 274.739 169.147 274.732 169.15C274.725 169.152 274.719 169.156 274.714 169.161C274.669 169.158 274.624 169.167 274.583 169.187C274.552 169.185 274.521 169.189 274.492 169.2C274.27 169.239 274.035 169.265 273.799 169.304C273.669 169.317 273.525 169.33 273.381 169.343C273.361 169.354 273.338 169.359 273.316 169.357C273.251 169.357 273.172 169.37 273.107 169.37C273.042 169.38 272.976 169.385 272.911 169.383C272.904 169.39 272.894 169.394 272.885 169.396H272.676C272.349 169.422 272.009 169.435 271.669 169.435H64.5735C60.8946 169.427 57.321 168.206 54.4058 165.962C51.4907 163.718 49.3967 160.575 48.448 157.02C48.3435 156.589 48.239 156.158 48.1737 155.714C47.9893 154.74 47.8974 153.751 47.8992 152.76V119.019C49.219 117.307 50.5432 115.6 51.8717 113.896C52.2115 113.452 52.5513 113.021 52.891 112.59C54.6813 110.29 56.4847 108.016 58.3402 105.794C60.1174 103.664 61.9862 101.56 63.9332 99.5217C64.3514 99.0904 64.7695 98.6461 65.2007 98.2149C70.1581 93.0501 75.8518 88.6465 82.0972 85.147C82.9466 84.6766 83.8091 84.2453 84.6846 83.8402C89.321 81.6266 94.3373 80.3181 99.4641 79.9851C106.19 79.6492 112.894 80.9732 118.987 83.8402C119.902 84.2322 120.804 84.6766 121.692 85.147C128.082 88.4401 134.08 93.0531 139.699 98.2149C140.183 98.6331 140.64 99.0773 141.111 99.5217C145.567 103.703 149.788 108.186 153.812 112.59C154.113 112.916 154.414 113.256 154.714 113.583C154.806 113.687 154.91 113.792 155.002 113.896C158.922 118.209 163.103 122.574 167.546 126.625C167.664 126.742 167.795 126.847 167.925 126.964C168.409 127.409 168.892 127.84 169.389 128.271C171.14 129.826 172.943 131.316 174.773 132.727C179.109 136.142 183.833 139.033 188.847 141.339C189.905 141.823 190.977 142.254 192.061 142.646C198.036 144.928 204.484 145.691 210.826 144.867C213.74 144.464 216.595 143.718 219.333 142.646C220.379 142.254 221.398 141.809 222.404 141.339C229.03 138.203 235.015 133.459 240.686 128.271C241.156 127.84 241.627 127.409 242.097 126.964C245.325 123.933 248.461 120.783 251.558 117.738C252.865 116.458 254.198 115.164 255.57 113.896C256.04 113.465 256.524 113.034 257.007 112.59C258.654 111.113 260.353 109.662 262.104 108.29C266.384 104.787 271.091 101.841 276.112 99.5217C276.544 99.3256 276.988 99.1427 277.419 98.9728C278.086 98.6984 278.752 98.4501 279.418 98.2149C282.296 97.1836 285.297 96.5334 288.344 96.2808Z"
            fill="black" />
    </g>
    <path
        d="M99.5162 87.7605C101.681 87.7605 103.437 86.0053 103.437 83.8402C103.437 81.675 101.681 79.9198 99.5162 79.9198C97.3511 79.9198 95.5959 81.675 95.5959 83.8402C95.5959 86.0053 97.3511 87.7605 99.5162 87.7605Z"
        fill="white" />
    <path
        d="M159.627 130.885C161.792 130.885 163.548 129.129 163.548 126.964C163.548 124.799 161.792 123.044 159.627 123.044C157.462 123.044 155.707 124.799 155.707 126.964C155.707 129.129 157.462 130.885 159.627 130.885Z"
        fill="white" />
    <path
        d="M240.647 102.135C242.812 102.135 244.567 100.38 244.567 98.2149C244.567 96.0497 242.812 94.2945 240.647 94.2945C238.481 94.2945 236.726 96.0497 236.726 98.2149C236.726 100.38 238.481 102.135 240.647 102.135Z"
        fill="white" />
    <path
        d="M418.968 131.664H326.528C326.09 131.663 325.656 131.749 325.25 131.917C324.845 132.084 324.477 132.33 324.167 132.639C323.856 132.949 323.61 133.317 323.442 133.722C323.274 134.127 323.188 134.561 323.188 135C323.188 135.438 323.274 135.872 323.442 136.277C323.61 136.682 323.856 137.05 324.167 137.36C324.477 137.67 324.845 137.915 325.25 138.083C325.656 138.25 326.09 138.336 326.528 138.335H418.968C419.852 138.335 420.701 137.984 421.326 137.358C421.952 136.733 422.303 135.884 422.303 135C422.303 134.115 421.952 133.267 421.326 132.641C420.701 132.016 419.852 131.664 418.968 131.664V131.664Z"
        fill="#E6E6E6" />
    <path
        d="M418.968 182.173H326.529C325.644 182.173 324.796 182.525 324.17 183.15C323.545 183.776 323.193 184.624 323.193 185.509C323.193 186.393 323.545 187.242 324.17 187.867C324.796 188.493 325.644 188.844 326.529 188.844H418.968C419.852 188.844 420.701 188.493 421.326 187.867C421.952 187.242 422.303 186.393 422.303 185.509C422.303 184.624 421.952 183.776 421.326 183.15C420.701 182.525 419.852 182.173 418.968 182.173V182.173Z"
        fill="#E6E6E6" />
    <path
        d="M418.968 232.682H326.529C325.644 232.682 324.796 233.034 324.17 233.659C323.545 234.285 323.193 235.133 323.193 236.018C323.193 236.902 323.545 237.751 324.17 238.376C324.796 239.002 325.644 239.353 326.529 239.353H418.968C419.852 239.353 420.701 239.002 421.326 238.376C421.952 237.751 422.303 236.902 422.303 236.018C422.303 235.133 421.952 234.285 421.326 233.659C420.701 233.034 419.852 232.682 418.968 232.682Z"
        fill="#E6E6E6" />
    <path
        d="M474.979 143.579C479.58 143.579 483.309 139.85 483.309 135.249C483.309 130.649 479.58 126.919 474.979 126.919C470.379 126.919 466.65 130.649 466.65 135.249C466.65 139.85 470.379 143.579 474.979 143.579Z"
        fill="#F2F6FF" />
    <path
        d="M473.843 139.584C473.699 139.584 473.557 139.551 473.429 139.487C473.3 139.422 473.188 139.329 473.102 139.214L470.829 136.184C470.756 136.086 470.703 135.976 470.673 135.858C470.642 135.74 470.635 135.617 470.653 135.496C470.67 135.376 470.71 135.26 470.772 135.155C470.834 135.05 470.917 134.959 471.014 134.886C471.111 134.812 471.222 134.759 471.34 134.729C471.458 134.699 471.581 134.692 471.701 134.71C471.822 134.727 471.938 134.768 472.043 134.83C472.147 134.892 472.239 134.974 472.312 135.072L473.798 137.054L477.617 131.326C477.753 131.122 477.965 130.98 478.206 130.932C478.447 130.883 478.697 130.933 478.902 131.069C479.106 131.206 479.248 131.418 479.296 131.659C479.345 131.9 479.295 132.15 479.159 132.354L474.614 139.172C474.532 139.295 474.421 139.397 474.291 139.469C474.162 139.54 474.017 139.58 473.869 139.584L473.843 139.584Z"
        fill="white" />
    <path
        d="M474.979 194.088C479.58 194.088 483.309 190.359 483.309 185.758C483.309 181.158 479.58 177.428 474.979 177.428C470.379 177.428 466.65 181.158 466.65 185.758C466.65 190.359 470.379 194.088 474.979 194.088Z"
        fill="#F2F6FF" />
    <path
        d="M473.843 190.094C473.699 190.094 473.557 190.06 473.429 189.996C473.3 189.931 473.188 189.838 473.102 189.723L470.829 186.693C470.756 186.595 470.703 186.485 470.673 186.367C470.642 186.249 470.635 186.126 470.653 186.005C470.67 185.885 470.71 185.769 470.772 185.664C470.834 185.559 470.917 185.468 471.014 185.395C471.111 185.322 471.222 185.268 471.34 185.238C471.458 185.208 471.581 185.201 471.701 185.219C471.822 185.236 471.938 185.277 472.043 185.339C472.147 185.401 472.239 185.483 472.312 185.581L473.798 187.563L477.617 181.835C477.684 181.734 477.771 181.647 477.872 181.58C477.973 181.512 478.087 181.465 478.206 181.441C478.325 181.417 478.448 181.417 478.568 181.44C478.687 181.464 478.801 181.511 478.902 181.578C479.003 181.646 479.09 181.733 479.158 181.834C479.225 181.935 479.273 182.048 479.296 182.168C479.32 182.287 479.32 182.41 479.297 182.529C479.273 182.649 479.226 182.762 479.159 182.863L474.614 189.681C474.532 189.804 474.421 189.906 474.291 189.978C474.162 190.049 474.017 190.089 473.869 190.093L473.843 190.094Z"
        fill="white" />
    <path
        d="M474.979 244.597C479.58 244.597 483.309 240.868 483.309 236.267C483.309 231.667 479.58 227.938 474.979 227.938C470.379 227.938 466.65 231.667 466.65 236.267C466.65 240.868 470.379 244.597 474.979 244.597Z"
        fill="#F2F6FF" />
    <path
        d="M418.968 81.155H326.529C325.644 81.155 324.796 81.5064 324.17 82.132C323.545 82.7575 323.193 83.6059 323.193 84.4905C323.193 85.3751 323.545 86.2235 324.17 86.8491C324.796 87.4746 325.644 87.826 326.529 87.826H418.968C419.852 87.826 420.701 87.4746 421.326 86.8491C421.952 86.2235 422.303 85.3751 422.303 84.4905C422.303 83.6059 421.952 82.7575 421.326 82.132C420.701 81.5064 419.852 81.155 418.968 81.155Z"
        fill="#E6E6E6" />
    <path
        d="M474.979 93.0698C479.58 93.0698 483.309 89.3404 483.309 84.74C483.309 80.1396 479.58 76.4102 474.979 76.4102C470.379 76.4102 466.65 80.1396 466.65 84.74C466.65 89.3404 470.379 93.0698 474.979 93.0698Z"
        fill="#1890FF" />
    <path
        d="M473.843 89.0753C473.699 89.0753 473.557 89.0418 473.429 88.9775C473.3 88.9131 473.188 88.8197 473.102 88.7046L470.829 85.6745C470.756 85.5772 470.703 85.4664 470.673 85.3485C470.642 85.2305 470.635 85.1078 470.653 84.9872C470.67 84.8666 470.71 84.7507 470.772 84.6459C470.834 84.5411 470.917 84.4495 471.014 84.3764C471.111 84.3034 471.222 84.2502 471.34 84.2201C471.458 84.1899 471.581 84.1833 471.701 84.2006C471.822 84.2179 471.938 84.2587 472.043 84.3209C472.147 84.383 472.239 84.4652 472.312 84.5627L473.798 86.5449L477.617 80.8172C477.684 80.716 477.771 80.629 477.872 80.5613C477.973 80.4936 478.087 80.4465 478.206 80.4226C478.325 80.3987 478.448 80.3986 478.568 80.4222C478.687 80.4458 478.801 80.4927 478.902 80.5602C479.003 80.6277 479.09 80.7145 479.158 80.8156C479.225 80.9167 479.273 81.0302 479.296 81.1495C479.32 81.2688 479.32 81.3916 479.297 81.511C479.273 81.6304 479.226 81.7439 479.159 81.8452L474.614 88.6627C474.532 88.786 474.421 88.8878 474.291 88.9595C474.162 89.0312 474.017 89.0709 473.869 89.075L473.843 89.0753Z"
        fill="white" />
    <path
        d="M447.343 93.0698C451.943 93.0698 455.672 89.3404 455.672 84.74C455.672 80.1396 451.943 76.4102 447.343 76.4102C442.742 76.4102 439.013 80.1396 439.013 84.74C439.013 89.3404 442.742 93.0698 447.343 93.0698Z"
        fill="#F2F6FF" />
    <path
        d="M447.343 143.579C451.943 143.579 455.672 139.85 455.672 135.249C455.672 130.649 451.943 126.919 447.343 126.919C442.742 126.919 439.013 130.649 439.013 135.249C439.013 139.85 442.742 143.579 447.343 143.579Z"
        fill="#F2F6FF" />
    <path
        d="M447.343 194.088C451.943 194.088 455.672 190.359 455.672 185.758C455.672 181.158 451.943 177.428 447.343 177.428C442.742 177.428 439.013 181.158 439.013 185.758C439.013 190.359 442.742 194.088 447.343 194.088Z"
        fill="#F2F6FF" />
    <path
        d="M447.343 244.597C451.943 244.597 455.672 240.868 455.672 236.267C455.672 231.667 451.943 227.938 447.343 227.938C442.742 227.938 439.013 231.667 439.013 236.267C439.013 240.868 442.742 244.597 447.343 244.597Z"
        fill="#F2F6FF" />
    <path
        d="M473.843 240.603C473.699 240.603 473.557 240.569 473.429 240.505C473.3 240.44 473.188 240.347 473.102 240.232L470.829 237.202C470.756 237.105 470.703 236.994 470.673 236.876C470.643 236.758 470.636 236.635 470.653 236.515C470.671 236.394 470.711 236.279 470.773 236.174C470.835 236.069 470.917 235.978 471.015 235.905C471.112 235.832 471.223 235.779 471.341 235.748C471.459 235.718 471.581 235.712 471.702 235.729C471.822 235.746 471.938 235.787 472.043 235.849C472.147 235.911 472.239 235.993 472.312 236.09L473.799 238.072L477.617 232.345C477.753 232.14 477.965 231.998 478.206 231.95C478.447 231.902 478.697 231.951 478.902 232.088C479.106 232.224 479.248 232.436 479.297 232.677C479.345 232.918 479.295 233.168 479.159 233.372L474.614 240.19C474.532 240.313 474.421 240.415 474.292 240.487C474.162 240.559 474.017 240.598 473.869 240.602L473.843 240.603Z"
        fill="white" />
    <path
        d="M461.833 398.982C461.836 399.03 461.827 399.077 461.809 399.121C461.79 399.165 461.761 399.204 461.725 399.234C461.668 399.277 461.601 399.304 461.53 399.314C461.459 399.329 461.384 399.315 461.323 399.276C461.261 399.237 461.216 399.176 461.199 399.105C460.205 395.763 457.771 393.199 455.466 390.685C453.392 388.431 451.354 386.054 450.309 383.123C449.857 381.958 449.656 380.711 449.721 379.463C449.786 378.216 450.114 376.996 450.684 375.884C451.043 375.22 451.46 374.588 451.93 373.997C452.96 372.686 454.184 371.52 455.286 370.281C455.401 370.151 455.517 370.014 455.625 369.885C455.776 369.719 455.913 369.546 456.042 369.373C457.416 367.674 458.371 365.676 458.83 363.539C459.321 360.934 459.397 358.267 459.053 355.638C458.909 354.241 458.71 352.853 458.455 351.475C458.441 351.41 458.433 351.353 458.419 351.295C457.307 345.385 455.286 339.682 452.427 334.391C452.319 334.197 452.218 334.002 452.11 333.815C451.649 332.98 451.174 332.158 450.669 331.352C450.842 331.229 451.03 331.114 451.217 331.006C452.869 333.681 454.306 336.481 455.517 339.382C457.081 343.104 458.257 346.978 459.024 350.942C459.074 351.158 459.11 351.382 459.146 351.598C459.449 353.261 459.672 354.947 459.809 356.625C460.08 359.258 459.899 361.918 459.276 364.49C458.711 366.531 457.711 368.425 456.345 370.043C456.1 370.353 455.841 370.655 455.567 370.951C454.472 372.146 453.262 373.306 452.276 374.609C451.772 375.265 451.344 375.975 451.001 376.727C449.841 379.32 450.389 382.158 451.671 384.592C453.99 389.021 458.412 392.039 460.767 396.382C461.202 397.182 461.554 398.024 461.818 398.896C461.827 398.924 461.832 398.953 461.833 398.982Z"
        fill="white" />
    <path
        d="M458.849 351.674C460.871 351.166 462.647 349.956 463.859 348.259C465.071 346.563 465.641 344.49 465.467 342.413C465.43 341.992 464.775 342.03 464.812 342.451C464.978 344.385 464.447 346.315 463.315 347.893C462.183 349.47 460.524 350.591 458.638 351.053C458.228 351.154 458.441 351.774 458.849 351.674Z"
        fill="white" />
    <path
        d="M456.221 369.48C452.544 367.324 449.815 363.862 448.578 359.783C448.456 359.378 447.835 359.589 447.957 359.993C449.253 364.235 452.1 367.833 455.931 370.068C456.296 370.281 456.585 369.692 456.221 369.48V369.48Z"
        fill="white" />
    <path
        d="M452.506 334.355C452.477 334.37 452.456 334.377 452.427 334.391C451.13 334.983 449.654 335.053 448.307 334.586C448.366 334.374 448.441 334.167 448.53 333.966C449.7 334.367 450.978 334.313 452.11 333.815C452.175 333.793 452.232 333.765 452.297 333.736C452.379 333.707 452.469 333.713 452.548 333.751C452.626 333.788 452.686 333.855 452.715 333.937C452.738 334.021 452.73 334.11 452.692 334.187C452.653 334.264 452.587 334.324 452.506 334.355V334.355Z"
        fill="white" />
    <path
        d="M416.605 223.99C417.235 223.232 417.691 222.344 417.941 221.391C418.19 220.437 418.228 219.44 418.051 218.471C417.874 217.501 417.486 216.582 416.916 215.778C416.345 214.974 415.605 214.305 414.748 213.819L419.097 190.254L407.63 195.109L405.258 216.742C404.536 218.236 404.387 219.943 404.839 221.54C405.291 223.137 406.313 224.513 407.712 225.406C409.111 226.3 410.789 226.649 412.428 226.388C414.067 226.127 415.553 225.274 416.605 223.99V223.99Z"
        fill="#FFB6B6" />
    <path
        d="M423.604 154.245L419.959 141.993L394.262 101.898C392.832 100.228 391.124 98.8195 389.213 97.7346C385.415 95.5636 380.987 94.76 376.668 95.4578C372.349 96.1555 368.4 98.3125 365.479 101.569C362.558 104.826 360.841 108.985 360.614 113.354C360.388 117.723 361.666 122.038 364.235 125.579C364.765 126.319 365.35 127.017 365.986 127.668L399.267 161.994L401.161 163.954L404.157 171.53L405.339 206.08L406.397 206.332L415.724 208.529L417.028 208.839L419.21 197.553L420.579 192.158C421.743 187.558 422.33 182.83 422.329 178.085C422.329 176.623 422.278 175.153 422.163 173.691L423.604 154.245Z"
        fill="#3F3D56" />
    <path d="M388.276 392.492H379.353L375.108 358.072L388.278 358.073L388.276 392.492Z" fill="#FFB6B6" />
    <path
        d="M388.039 389.576L378.517 385.708L378.236 385.593L372.979 389.576C370.094 389.576 367.32 390.689 365.236 392.685C363.152 394.68 361.919 397.403 361.794 400.286C361.779 400.444 361.779 400.61 361.779 400.776V401.143H390.552V389.576H388.039Z"
        fill="#2F2E41" />
    <path d="M371.283 374.691L363.592 379.217L342.477 351.705L353.828 345.026L371.283 374.691Z" fill="#FFB6B6" />
    <path
        d="M376.594 379.226L375.55 377.447L371.769 371.023L369.803 372.182L369.601 372.297L359.431 373.796L359.129 373.839L356.623 379.939C355.355 380.685 354.246 381.673 353.36 382.847C352.474 384.021 351.827 385.359 351.458 386.783C351.089 388.207 351.004 389.689 351.208 391.146C351.412 392.603 351.901 394.005 352.647 395.273L352.834 395.583L377.632 380.991L376.594 379.226Z"
        fill="#2F2E41" />
    <path
        d="M399.578 182.067C403.762 194.685 403.32 208.382 398.573 223.083L397.334 273.618L393.354 305.495C395.754 311.741 396.985 318.375 396.986 325.067C396.969 342.606 395.79 367.523 389.811 379.229H375.661L372.467 327.102L368.656 300.894L368.186 272.81L367.776 248.316L352.392 270.813L337.442 292.674L352.301 317.739L365.265 358.073L351.581 369.597L336.057 340.165L328.534 331.424L307.996 286.963L309.842 280.772C313.643 268.024 319.163 255.853 326.25 244.595V244.595L346.679 197.181L399.578 182.067Z"
        fill="#2F2E41" />
    <path
        d="M401.392 177.854L399.058 173.187L399.267 161.994L399.966 124.153C400.05 119.252 399.14 114.384 397.292 109.843C395.444 105.303 392.696 101.184 389.213 97.7346C387.146 95.675 384.833 93.8777 382.327 92.3832L377.315 89.387L374.779 82.9481L351.401 83.5171L351.351 89.7615L351.329 91.9583L342.953 105.312L342.96 105.369L343.133 129.67L343.479 178.041L345.79 185.539L342.297 194.268L344.156 199.829L345.639 199.591L395.608 191.604C397.88 190.875 399.808 189.344 401.032 187.296C401.278 186.896 401.492 186.477 401.673 186.043C402.218 184.738 402.475 183.331 402.426 181.918C402.378 180.505 402.025 179.119 401.392 177.854Z"
        fill="#3F3D56" />
    <path
        d="M360.947 74.9387C372.679 74.9387 382.19 65.4274 382.19 53.6947C382.19 41.9619 372.679 32.4506 360.947 32.4506C349.214 32.4506 339.703 41.9619 339.703 53.6947C339.703 65.4274 349.214 74.9387 360.947 74.9387Z"
        fill="#FFB6B6" />
    <path
        d="M374.162 71.2979C376.405 69.7192 378.677 66.7138 380.191 64.464C382.197 61.5064 383.559 58.1603 384.189 54.6426C384.818 51.1249 384.702 47.5141 383.848 44.0442C383.571 42.6559 382.921 41.3694 381.967 40.3233C381.48 39.8127 380.843 39.4694 380.149 39.3426C379.454 39.2157 378.738 39.3119 378.101 39.6173C378.422 38.7203 378.556 37.7671 378.494 36.8165C378.432 35.8658 378.176 34.938 377.742 34.0901C376.86 32.3974 375.596 30.9335 374.05 29.8143C371.092 27.6011 367.59 26.23 363.916 25.8465C360.242 25.4629 356.532 26.0813 353.181 27.6359C351.863 28.2691 353.977 23.4904 352.594 23.9675C351.222 24.5209 349.688 24.5151 348.32 23.9515C347.004 23.3121 342.729 27.2786 343.211 25.8978C342.226 26.3616 341.374 27.0671 340.735 27.9486C340.096 28.8302 339.691 29.8591 339.557 30.9396C339.422 32.0201 339.564 33.1169 339.968 34.128C340.371 35.1391 341.024 36.0316 341.866 36.7223C342.975 37.6325 344.351 38.1464 345.563 38.9155C347.686 40.3661 349.205 42.5439 349.833 45.0378C350.46 47.5318 350.153 50.1692 348.969 52.4522C350.221 51.6233 351.598 51.0019 353.048 50.6121C353.776 50.4239 354.538 50.4121 355.271 50.5777C356.003 50.7433 356.686 51.0815 357.262 51.5642C357.745 52.1018 358.113 52.7325 358.344 53.4175C358.574 54.1026 358.662 54.8275 358.602 55.5477C358.574 56.9899 358.251 58.4148 358.233 59.8571C358.178 64.0892 356.024 72.1638 359.335 74.3671C361.948 76.1058 371.098 73.4533 374.162 71.2979Z"
        fill="#2F2E41" />
    <path
        d="M242.931 105.367C243.434 106.215 244.116 106.943 244.93 107.498C245.744 108.054 246.671 108.425 247.643 108.584C248.616 108.743 249.612 108.687 250.561 108.419C251.51 108.152 252.388 107.68 253.135 107.036L273.867 119.051L273.148 106.619L253.571 97.1156C252.406 95.933 250.848 95.2187 249.192 95.1081C247.536 94.9975 245.897 95.4982 244.586 96.5153C243.274 97.5324 242.381 98.9953 242.076 100.627C241.771 102.258 242.075 103.945 242.931 105.367V105.367Z"
        fill="#FFB6B6" />
    <path
        d="M376.818 101.645C376.013 99.1316 374.698 96.8112 372.954 94.8301C371.21 92.8491 369.074 91.2503 366.683 90.1342C364.291 89.0181 361.694 88.4088 359.055 88.3447C356.417 88.2806 353.794 88.7629 351.35 89.7615C351.12 89.8552 350.889 89.956 350.659 90.0568L304.665 110.994L286.761 108.87L263.584 100.774L262.993 101.689L257.786 109.734L257.059 110.857L281.921 125.557L284.557 126.105C286.852 126.58 289.031 127.503 290.969 128.822C292.907 130.141 294.566 131.829 295.85 133.79L305.487 136.959L343.133 129.67L364.235 125.579L365.431 125.349C369.047 123.957 372.157 121.503 374.351 118.309C376.546 115.116 377.722 111.333 377.725 107.458C377.726 105.485 377.42 103.524 376.818 101.645V101.645Z"
        fill="#3F3D56" />
    <path
        d="M483.841 402H233.212C232.984 402 232.766 401.91 232.605 401.749C232.444 401.588 232.354 401.37 232.354 401.142C232.354 400.915 232.444 400.697 232.605 400.536C232.766 400.375 232.984 400.285 233.212 400.285H483.841C484.069 400.285 484.287 400.375 484.447 400.536C484.608 400.697 484.699 400.915 484.699 401.142C484.699 401.37 484.608 401.588 484.447 401.749C484.287 401.91 484.069 402 483.841 402Z"
        fill="#CCCCCC" />
    <path
        d="M214.088 201.621H61.8698C60.9861 201.622 60.139 201.974 59.5145 202.6C58.8901 203.225 58.5393 204.073 58.5393 204.956C58.5393 205.84 58.8901 206.688 59.5145 207.313C60.139 207.939 60.9861 208.291 61.8698 208.292H214.088C214.526 208.293 214.96 208.207 215.366 208.039C215.771 207.872 216.139 207.627 216.449 207.317C216.76 207.007 217.006 206.639 217.174 206.234C217.342 205.829 217.428 205.395 217.428 204.956C217.428 204.518 217.342 204.084 217.174 203.679C217.006 203.274 216.76 202.906 216.449 202.596C216.139 202.286 215.771 202.041 215.366 201.873C214.96 201.706 214.526 201.62 214.088 201.621H214.088Z"
        fill="#E6E6E6" />
    <path
        d="M270.099 213.536C274.699 213.536 278.429 209.806 278.429 205.206C278.429 200.606 274.699 196.876 270.099 196.876C265.499 196.876 261.77 200.606 261.77 205.206C261.77 209.806 265.499 213.536 270.099 213.536Z"
        fill="#1890FF" />
    <path
        d="M268.963 209.541C268.819 209.541 268.677 209.508 268.548 209.443C268.42 209.379 268.308 209.286 268.221 209.17L265.949 206.14C265.876 206.043 265.823 205.932 265.793 205.814C265.762 205.697 265.756 205.574 265.773 205.453C265.79 205.333 265.831 205.217 265.893 205.112C265.955 205.008 266.037 204.916 266.134 204.843C266.232 204.77 266.342 204.717 266.46 204.687C266.578 204.657 266.701 204.65 266.821 204.667C266.942 204.685 267.058 204.725 267.162 204.787C267.267 204.849 267.358 204.931 267.431 205.029L268.918 207.011L272.737 201.283C272.804 201.182 272.891 201.095 272.992 201.027C273.093 200.959 273.207 200.912 273.326 200.888C273.445 200.865 273.568 200.865 273.687 200.888C273.807 200.912 273.92 200.959 274.022 201.026C274.123 201.094 274.21 201.18 274.277 201.281C274.345 201.383 274.392 201.496 274.416 201.615C274.44 201.735 274.44 201.858 274.417 201.977C274.393 202.096 274.346 202.21 274.279 202.311L269.734 209.129C269.651 209.252 269.541 209.354 269.411 209.425C269.282 209.497 269.137 209.537 268.988 209.541L268.963 209.541Z"
        fill="white" />
    <path
        d="M242.463 213.536C247.063 213.536 250.792 209.806 250.792 205.206C250.792 200.606 247.063 196.876 242.463 196.876C237.862 196.876 234.133 200.606 234.133 205.206C234.133 209.806 237.862 213.536 242.463 213.536Z"
        fill="#F2F6FF" />
    <path
        d="M213.367 241.954H61.1494C60.2656 241.956 59.4185 242.308 58.7941 242.933C58.1696 243.558 57.8188 244.406 57.8188 245.29C57.8188 246.174 58.1696 247.021 58.7941 247.647C59.4185 248.272 60.2656 248.624 61.1494 248.625H213.367C214.252 248.625 215.1 248.274 215.726 247.648C216.351 247.023 216.703 246.175 216.703 245.29C216.703 244.405 216.351 243.557 215.726 242.931C215.1 242.306 214.252 241.954 213.367 241.954H213.367Z"
        fill="#E6E6E6" />
    <path
        d="M269.379 253.869C273.979 253.869 277.709 250.14 277.709 245.539C277.709 240.939 273.979 237.21 269.379 237.21C264.779 237.21 261.049 240.939 261.049 245.539C261.049 250.14 264.779 253.869 269.379 253.869Z"
        fill="#F2F6FF" />
    <path
        d="M268.243 249.875C268.099 249.875 267.957 249.841 267.828 249.777C267.7 249.712 267.588 249.619 267.501 249.504L265.229 246.474C265.082 246.277 265.018 246.03 265.053 245.787C265.088 245.544 265.218 245.324 265.414 245.177C265.611 245.029 265.858 244.966 266.101 245.001C266.345 245.036 266.564 245.165 266.711 245.362L268.198 247.344L272.017 241.617C272.084 241.515 272.171 241.428 272.272 241.361C272.373 241.293 272.487 241.246 272.606 241.222C272.725 241.198 272.848 241.198 272.967 241.222C273.087 241.245 273.2 241.292 273.302 241.36C273.403 241.427 273.49 241.514 273.557 241.615C273.625 241.716 273.672 241.83 273.696 241.949C273.72 242.068 273.72 242.191 273.697 242.31C273.673 242.43 273.626 242.543 273.558 242.645L269.014 249.462C268.931 249.585 268.821 249.687 268.691 249.759C268.562 249.831 268.417 249.87 268.268 249.874L268.243 249.875Z"
        fill="white" />
    <path
        d="M241.742 253.869C246.343 253.869 250.072 250.14 250.072 245.539C250.072 240.939 246.343 237.21 241.742 237.21C237.142 237.21 233.413 240.939 233.413 245.539C233.413 250.14 237.142 253.869 241.742 253.869Z"
        fill="#F2F6FF" />
</svg>