<svg width="125" height="96" viewBox="0 0 125 96" fill="none" xmlns="http://www.w3.org/2000/svg">
<path d="M34.2742 49L30.2742 57H88.2742L93.7742 20.5H109.774V26L120.274 16L109.774 5.5V13H86.2742L80.2742 49H54.2742H34.2742Z" fill="#1890FF" stroke="#1890FF"/>
<path d="M45.7742 0H36.7742L19 47.5H28.7742L41.7742 13L65.7742 77.5H75.7742L45.7742 0Z" fill="white"/>
<path d="M7.60156 89.0312H2.83594L1.76562 92H0.21875L4.5625 80.625H5.875L10.2266 92H8.6875L7.60156 89.0312ZM3.28906 87.7969H7.15625L5.21875 82.4766L3.28906 87.7969ZM14.9219 90.9766C15.4375 90.9766 15.888 90.8203 16.2734 90.5078C16.6589 90.1953 16.8724 89.8047 16.9141 89.3359H18.2812C18.2552 89.8203 18.0885 90.2812 17.7812 90.7188C17.474 91.1562 17.0625 91.5052 16.5469 91.7656C16.0365 92.026 15.4948 92.1562 14.9219 92.1562C13.7708 92.1562 12.8542 91.7734 12.1719 91.0078C11.4948 90.237 11.1562 89.1849 11.1562 87.8516V87.6094C11.1562 86.7865 11.3073 86.0547 11.6094 85.4141C11.9115 84.7734 12.3438 84.276 12.9062 83.9219C13.474 83.5677 14.1432 83.3906 14.9141 83.3906C15.862 83.3906 16.6484 83.6745 17.2734 84.2422C17.9036 84.8099 18.2396 85.5469 18.2812 86.4531H16.9141C16.8724 85.9062 16.6641 85.4583 16.2891 85.1094C15.9193 84.7552 15.4609 84.5781 14.9141 84.5781C14.1797 84.5781 13.6094 84.8438 13.2031 85.375C12.8021 85.901 12.6016 86.6641 12.6016 87.6641V87.9375C12.6016 88.9115 12.8021 89.6615 13.2031 90.1875C13.6042 90.7135 14.1771 90.9766 14.9219 90.9766ZM19.5234 87.6953C19.5234 86.8672 19.6849 86.1224 20.0078 85.4609C20.3359 84.7995 20.7891 84.2891 21.3672 83.9297C21.9505 83.5703 22.6146 83.3906 23.3594 83.3906C24.5104 83.3906 25.4401 83.7891 26.1484 84.5859C26.862 85.3828 27.2188 86.4427 27.2188 87.7656V87.8672C27.2188 88.6901 27.0599 89.4297 26.7422 90.0859C26.4297 90.737 25.9792 91.2448 25.3906 91.6094C24.8073 91.974 24.1354 92.1562 23.375 92.1562C22.2292 92.1562 21.2995 91.7578 20.5859 90.9609C19.8776 90.1641 19.5234 89.1094 19.5234 87.7969V87.6953ZM20.9766 87.8672C20.9766 88.8047 21.1927 89.5573 21.625 90.125C22.0625 90.6927 22.6458 90.9766 23.375 90.9766C24.1094 90.9766 24.6927 90.6901 25.125 90.1172C25.5573 89.5391 25.7734 88.7318 25.7734 87.6953C25.7734 86.7682 25.5521 86.0182 25.1094 85.4453C24.6719 84.8672 24.0885 84.5781 23.3594 84.5781C22.6458 84.5781 22.0703 84.862 21.6328 85.4297C21.1953 85.9974 20.9766 86.8099 20.9766 87.8672ZM30.3906 83.5469L30.4297 84.4844C31.0495 83.7552 31.8854 83.3906 32.9375 83.3906C34.1198 83.3906 34.9245 83.8438 35.3516 84.75C35.6328 84.3438 35.9974 84.0156 36.4453 83.7656C36.8984 83.5156 37.4323 83.3906 38.0469 83.3906C39.901 83.3906 40.8438 84.3724 40.875 86.3359V92H39.4297V86.4219C39.4297 85.8177 39.2917 85.3672 39.0156 85.0703C38.7396 84.7682 38.276 84.6172 37.625 84.6172C37.0885 84.6172 36.6432 84.7786 36.2891 85.1016C35.9349 85.4193 35.7292 85.849 35.6719 86.3906V92H34.2188V86.4609C34.2188 85.2318 33.6172 84.6172 32.4141 84.6172C31.4661 84.6172 30.8177 85.0208 30.4688 85.8281V92H29.0234V83.5469H30.3906ZM50.2031 87.8672C50.2031 89.1536 49.9089 90.1901 49.3203 90.9766C48.7318 91.763 47.9349 92.1562 46.9297 92.1562C45.9036 92.1562 45.0964 91.8307 44.5078 91.1797V95.25H43.0625V83.5469H44.3828L44.4531 84.4844C45.0417 83.7552 45.8594 83.3906 46.9062 83.3906C47.9219 83.3906 48.724 83.7734 49.3125 84.5391C49.9062 85.3047 50.2031 86.3698 50.2031 87.7344V87.8672ZM48.7578 87.7031C48.7578 86.75 48.5547 85.9974 48.1484 85.4453C47.7422 84.8932 47.1849 84.6172 46.4766 84.6172C45.6016 84.6172 44.9453 85.0052 44.5078 85.7812V89.8203C44.9401 90.5911 45.6016 90.9766 46.4922 90.9766C47.1849 90.9766 47.7344 90.7031 48.1406 90.1562C48.5521 89.6042 48.7578 88.7865 48.7578 87.7031ZM57.2656 92C57.1823 91.8333 57.1146 91.5365 57.0625 91.1094C56.3906 91.8073 55.5885 92.1562 54.6562 92.1562C53.8229 92.1562 53.138 91.9219 52.6016 91.4531C52.0703 90.9792 51.8047 90.3802 51.8047 89.6562C51.8047 88.776 52.138 88.0938 52.8047 87.6094C53.4766 87.1198 54.4193 86.875 55.6328 86.875H57.0391V86.2109C57.0391 85.7057 56.888 85.3047 56.5859 85.0078C56.2839 84.7057 55.8385 84.5547 55.25 84.5547C54.7344 84.5547 54.3021 84.6849 53.9531 84.9453C53.6042 85.2057 53.4297 85.5208 53.4297 85.8906H51.9766C51.9766 85.4688 52.125 85.0625 52.4219 84.6719C52.724 84.276 53.1302 83.9635 53.6406 83.7344C54.1562 83.5052 54.7214 83.3906 55.3359 83.3906C56.3099 83.3906 57.0729 83.6354 57.625 84.125C58.1771 84.6094 58.4635 85.2786 58.4844 86.1328V90.0234C58.4844 90.7995 58.5833 91.4167 58.7812 91.875V92H57.2656ZM54.8672 90.8984C55.3203 90.8984 55.75 90.7812 56.1562 90.5469C56.5625 90.3125 56.8568 90.0078 57.0391 89.6328V87.8984H55.9062C54.1354 87.8984 53.25 88.4167 53.25 89.4531C53.25 89.9062 53.401 90.2604 53.7031 90.5156C54.0052 90.7708 54.3932 90.8984 54.8672 90.8984ZM62.1172 83.5469L62.1641 84.6094C62.8099 83.7969 63.6536 83.3906 64.6953 83.3906C66.4818 83.3906 67.3828 84.3984 67.3984 86.4141V92H65.9531V86.4062C65.9479 85.7969 65.8073 85.3464 65.5312 85.0547C65.2604 84.763 64.8359 84.6172 64.2578 84.6172C63.7891 84.6172 63.3776 84.7422 63.0234 84.9922C62.6693 85.2422 62.3932 85.5703 62.1953 85.9766V92H60.75V83.5469H62.1172ZM71.0234 84.5703C71.6641 83.7839 72.4974 83.3906 73.5234 83.3906C75.3099 83.3906 76.2109 84.3984 76.2266 86.4141V92H74.7812V86.4062C74.776 85.7969 74.6354 85.3464 74.3594 85.0547C74.0885 84.763 73.6641 84.6172 73.0859 84.6172C72.6172 84.6172 72.2057 84.7422 71.8516 84.9922C71.4974 85.2422 71.2214 85.5703 71.0234 85.9766V92H69.5781V80H71.0234V84.5703ZM83.6094 92C83.526 91.8333 83.4583 91.5365 83.4062 91.1094C82.7344 91.8073 81.9323 92.1562 81 92.1562C80.1667 92.1562 79.4818 91.9219 78.9453 91.4531C78.4141 90.9792 78.1484 90.3802 78.1484 89.6562C78.1484 88.776 78.4818 88.0938 79.1484 87.6094C79.8203 87.1198 80.763 86.875 81.9766 86.875H83.3828V86.2109C83.3828 85.7057 83.2318 85.3047 82.9297 85.0078C82.6276 84.7057 82.1823 84.5547 81.5938 84.5547C81.0781 84.5547 80.6458 84.6849 80.2969 84.9453C79.9479 85.2057 79.7734 85.5208 79.7734 85.8906H78.3203C78.3203 85.4688 78.4688 85.0625 78.7656 84.6719C79.0677 84.276 79.474 83.9635 79.9844 83.7344C80.5 83.5052 81.0651 83.3906 81.6797 83.3906C82.6536 83.3906 83.4167 83.6354 83.9688 84.125C84.5208 84.6094 84.8073 85.2786 84.8281 86.1328V90.0234C84.8281 90.7995 84.9271 91.4167 85.125 91.875V92H83.6094ZM81.2109 90.8984C81.6641 90.8984 82.0938 90.7812 82.5 90.5469C82.9062 90.3125 83.2005 90.0078 83.3828 89.6328V87.8984H82.25C80.4792 87.8984 79.5938 88.4167 79.5938 89.4531C79.5938 89.9062 79.7448 90.2604 80.0469 90.5156C80.349 90.7708 80.737 90.8984 81.2109 90.8984ZM88.8281 90.7734H94.2188V92H87.3203V80.625H88.8281V90.7734ZM99.2109 92.1562C98.0651 92.1562 97.1328 91.7812 96.4141 91.0312C95.6953 90.276 95.3359 89.2682 95.3359 88.0078V87.7422C95.3359 86.9036 95.4948 86.1562 95.8125 85.5C96.1354 84.8385 96.5833 84.3229 97.1562 83.9531C97.7344 83.5781 98.3594 83.3906 99.0312 83.3906C100.13 83.3906 100.984 83.7526 101.594 84.4766C102.203 85.2005 102.508 86.237 102.508 87.5859V88.1875H96.7812C96.8021 89.0208 97.0443 89.6953 97.5078 90.2109C97.9766 90.7214 98.5703 90.9766 99.2891 90.9766C99.7995 90.9766 100.232 90.8724 100.586 90.6641C100.94 90.4557 101.25 90.1797 101.516 89.8359L102.398 90.5234C101.69 91.612 100.628 92.1562 99.2109 92.1562ZM99.0312 84.5781C98.4479 84.5781 97.9583 84.7917 97.5625 85.2188C97.1667 85.6406 96.9219 86.2344 96.8281 87H101.062V86.8906C101.021 86.1562 100.823 85.5885 100.469 85.1875C100.115 84.7812 99.6354 84.5781 99.0312 84.5781ZM103.844 87.7031C103.844 86.3854 104.148 85.3385 104.758 84.5625C105.367 83.7812 106.174 83.3906 107.18 83.3906C108.211 83.3906 109.016 83.7552 109.594 84.4844L109.664 83.5469H110.984V91.7969C110.984 92.8906 110.659 93.7526 110.008 94.3828C109.362 95.013 108.492 95.3281 107.398 95.3281C106.789 95.3281 106.193 95.1979 105.609 94.9375C105.026 94.6771 104.581 94.3203 104.273 93.8672L105.023 93C105.643 93.7656 106.401 94.1484 107.297 94.1484C108 94.1484 108.547 93.9505 108.938 93.5547C109.333 93.1589 109.531 92.6016 109.531 91.8828V91.1562C108.953 91.8229 108.164 92.1562 107.164 92.1562C106.174 92.1562 105.372 91.7578 104.758 90.9609C104.148 90.1641 103.844 89.0781 103.844 87.7031ZM105.297 87.8672C105.297 88.8203 105.492 89.5703 105.883 90.1172C106.273 90.6589 106.82 90.9297 107.523 90.9297C108.435 90.9297 109.104 90.5156 109.531 89.6875V85.8281C109.089 85.0208 108.424 84.6172 107.539 84.6172C106.836 84.6172 106.286 84.8906 105.891 85.4375C105.495 85.9844 105.297 86.7943 105.297 87.8672ZM114.742 92H113.297V83.5469H114.742V92ZM113.18 81.3047C113.18 81.0703 113.25 80.8724 113.391 80.7109C113.536 80.5495 113.75 80.4688 114.031 80.4688C114.312 80.4688 114.526 80.5495 114.672 80.7109C114.818 80.8724 114.891 81.0703 114.891 81.3047C114.891 81.5391 114.818 81.7344 114.672 81.8906C114.526 82.0469 114.312 82.125 114.031 82.125C113.75 82.125 113.536 82.0469 113.391 81.8906C113.25 81.7344 113.18 81.5391 113.18 81.3047ZM121.984 89.7578C121.984 89.3672 121.836 89.0651 121.539 88.8516C121.247 88.6328 120.734 88.4453 120 88.2891C119.271 88.1328 118.69 87.9453 118.258 87.7266C117.831 87.5078 117.513 87.2474 117.305 86.9453C117.102 86.6432 117 86.2839 117 85.8672C117 85.1745 117.292 84.5885 117.875 84.1094C118.464 83.6302 119.214 83.3906 120.125 83.3906C121.083 83.3906 121.859 83.638 122.453 84.1328C123.052 84.6276 123.352 85.2604 123.352 86.0312H121.898C121.898 85.6354 121.729 85.2943 121.391 85.0078C121.057 84.7214 120.635 84.5781 120.125 84.5781C119.599 84.5781 119.188 84.6927 118.891 84.9219C118.594 85.151 118.445 85.4505 118.445 85.8203C118.445 86.1693 118.583 86.4323 118.859 86.6094C119.135 86.7865 119.633 86.9557 120.352 87.1172C121.076 87.2786 121.661 87.4714 122.109 87.6953C122.557 87.9193 122.888 88.1901 123.102 88.5078C123.32 88.8203 123.43 89.2031 123.43 89.6562C123.43 90.4115 123.128 91.0182 122.523 91.4766C121.919 91.9297 121.135 92.1562 120.172 92.1562C119.495 92.1562 118.896 92.0365 118.375 91.7969C117.854 91.5573 117.445 91.224 117.148 90.7969C116.857 90.3646 116.711 89.8984 116.711 89.3984H118.156C118.182 89.8828 118.375 90.2682 118.734 90.5547C119.099 90.8359 119.578 90.9766 120.172 90.9766C120.719 90.9766 121.156 90.8672 121.484 90.6484C121.818 90.4245 121.984 90.1276 121.984 89.7578Z" fill="white"/>
</svg>
