<svg width="125" height="97" viewBox="0 0 125 97" fill="none" xmlns="http://www.w3.org/2000/svg">
<path d="M34.2742 49L30.2742 57H88.2742L93.7742 20.5H109.774V26L120.274 16L109.774 5.5V13H86.2742L80.2742 49H54.2742H34.2742Z" fill="#1890FF" stroke="#1890FF"/>
<path d="M45.7742 0H36.7742L19 47.5H28.7742L41.7742 13L65.7742 77.5H75.7742L45.7742 0Z" fill="black"/>
<path d="M7.60156 90.0312H2.83594L1.76562 93H0.21875L4.5625 81.625H5.875L10.2266 93H8.6875L7.60156 90.0312ZM3.28906 88.7969H7.15625L5.21875 83.4766L3.28906 88.7969ZM14.9219 91.9766C15.4375 91.9766 15.888 91.8203 16.2734 91.5078C16.6589 91.1953 16.8724 90.8047 16.9141 90.3359H18.2812C18.2552 90.8203 18.0885 91.2812 17.7812 91.7188C17.474 92.1562 17.0625 92.5052 16.5469 92.7656C16.0365 93.026 15.4948 93.1562 14.9219 93.1562C13.7708 93.1562 12.8542 92.7734 12.1719 92.0078C11.4948 91.237 11.1562 90.1849 11.1562 88.8516V88.6094C11.1562 87.7865 11.3073 87.0547 11.6094 86.4141C11.9115 85.7734 12.3438 85.276 12.9062 84.9219C13.474 84.5677 14.1432 84.3906 14.9141 84.3906C15.862 84.3906 16.6484 84.6745 17.2734 85.2422C17.9036 85.8099 18.2396 86.5469 18.2812 87.4531H16.9141C16.8724 86.9062 16.6641 86.4583 16.2891 86.1094C15.9193 85.7552 15.4609 85.5781 14.9141 85.5781C14.1797 85.5781 13.6094 85.8438 13.2031 86.375C12.8021 86.901 12.6016 87.6641 12.6016 88.6641V88.9375C12.6016 89.9115 12.8021 90.6615 13.2031 91.1875C13.6042 91.7135 14.1771 91.9766 14.9219 91.9766ZM19.5234 88.6953C19.5234 87.8672 19.6849 87.1224 20.0078 86.4609C20.3359 85.7995 20.7891 85.2891 21.3672 84.9297C21.9505 84.5703 22.6146 84.3906 23.3594 84.3906C24.5104 84.3906 25.4401 84.7891 26.1484 85.5859C26.862 86.3828 27.2188 87.4427 27.2188 88.7656V88.8672C27.2188 89.6901 27.0599 90.4297 26.7422 91.0859C26.4297 91.737 25.9792 92.2448 25.3906 92.6094C24.8073 92.974 24.1354 93.1562 23.375 93.1562C22.2292 93.1562 21.2995 92.7578 20.5859 91.9609C19.8776 91.1641 19.5234 90.1094 19.5234 88.7969V88.6953ZM20.9766 88.8672C20.9766 89.8047 21.1927 90.5573 21.625 91.125C22.0625 91.6927 22.6458 91.9766 23.375 91.9766C24.1094 91.9766 24.6927 91.6901 25.125 91.1172C25.5573 90.5391 25.7734 89.7318 25.7734 88.6953C25.7734 87.7682 25.5521 87.0182 25.1094 86.4453C24.6719 85.8672 24.0885 85.5781 23.3594 85.5781C22.6458 85.5781 22.0703 85.862 21.6328 86.4297C21.1953 86.9974 20.9766 87.8099 20.9766 88.8672ZM30.3906 84.5469L30.4297 85.4844C31.0495 84.7552 31.8854 84.3906 32.9375 84.3906C34.1198 84.3906 34.9245 84.8438 35.3516 85.75C35.6328 85.3438 35.9974 85.0156 36.4453 84.7656C36.8984 84.5156 37.4323 84.3906 38.0469 84.3906C39.901 84.3906 40.8438 85.3724 40.875 87.3359V93H39.4297V87.4219C39.4297 86.8177 39.2917 86.3672 39.0156 86.0703C38.7396 85.7682 38.276 85.6172 37.625 85.6172C37.0885 85.6172 36.6432 85.7786 36.2891 86.1016C35.9349 86.4193 35.7292 86.849 35.6719 87.3906V93H34.2188V87.4609C34.2188 86.2318 33.6172 85.6172 32.4141 85.6172C31.4661 85.6172 30.8177 86.0208 30.4688 86.8281V93H29.0234V84.5469H30.3906ZM50.2031 88.8672C50.2031 90.1536 49.9089 91.1901 49.3203 91.9766C48.7318 92.763 47.9349 93.1562 46.9297 93.1562C45.9036 93.1562 45.0964 92.8307 44.5078 92.1797V96.25H43.0625V84.5469H44.3828L44.4531 85.4844C45.0417 84.7552 45.8594 84.3906 46.9062 84.3906C47.9219 84.3906 48.724 84.7734 49.3125 85.5391C49.9062 86.3047 50.2031 87.3698 50.2031 88.7344V88.8672ZM48.7578 88.7031C48.7578 87.75 48.5547 86.9974 48.1484 86.4453C47.7422 85.8932 47.1849 85.6172 46.4766 85.6172C45.6016 85.6172 44.9453 86.0052 44.5078 86.7812V90.8203C44.9401 91.5911 45.6016 91.9766 46.4922 91.9766C47.1849 91.9766 47.7344 91.7031 48.1406 91.1562C48.5521 90.6042 48.7578 89.7865 48.7578 88.7031ZM57.2656 93C57.1823 92.8333 57.1146 92.5365 57.0625 92.1094C56.3906 92.8073 55.5885 93.1562 54.6562 93.1562C53.8229 93.1562 53.138 92.9219 52.6016 92.4531C52.0703 91.9792 51.8047 91.3802 51.8047 90.6562C51.8047 89.776 52.138 89.0938 52.8047 88.6094C53.4766 88.1198 54.4193 87.875 55.6328 87.875H57.0391V87.2109C57.0391 86.7057 56.888 86.3047 56.5859 86.0078C56.2839 85.7057 55.8385 85.5547 55.25 85.5547C54.7344 85.5547 54.3021 85.6849 53.9531 85.9453C53.6042 86.2057 53.4297 86.5208 53.4297 86.8906H51.9766C51.9766 86.4688 52.125 86.0625 52.4219 85.6719C52.724 85.276 53.1302 84.9635 53.6406 84.7344C54.1562 84.5052 54.7214 84.3906 55.3359 84.3906C56.3099 84.3906 57.0729 84.6354 57.625 85.125C58.1771 85.6094 58.4635 86.2786 58.4844 87.1328V91.0234C58.4844 91.7995 58.5833 92.4167 58.7812 92.875V93H57.2656ZM54.8672 91.8984C55.3203 91.8984 55.75 91.7812 56.1562 91.5469C56.5625 91.3125 56.8568 91.0078 57.0391 90.6328V88.8984H55.9062C54.1354 88.8984 53.25 89.4167 53.25 90.4531C53.25 90.9062 53.401 91.2604 53.7031 91.5156C54.0052 91.7708 54.3932 91.8984 54.8672 91.8984ZM62.1172 84.5469L62.1641 85.6094C62.8099 84.7969 63.6536 84.3906 64.6953 84.3906C66.4818 84.3906 67.3828 85.3984 67.3984 87.4141V93H65.9531V87.4062C65.9479 86.7969 65.8073 86.3464 65.5312 86.0547C65.2604 85.763 64.8359 85.6172 64.2578 85.6172C63.7891 85.6172 63.3776 85.7422 63.0234 85.9922C62.6693 86.2422 62.3932 86.5703 62.1953 86.9766V93H60.75V84.5469H62.1172ZM71.0234 85.5703C71.6641 84.7839 72.4974 84.3906 73.5234 84.3906C75.3099 84.3906 76.2109 85.3984 76.2266 87.4141V93H74.7812V87.4062C74.776 86.7969 74.6354 86.3464 74.3594 86.0547C74.0885 85.763 73.6641 85.6172 73.0859 85.6172C72.6172 85.6172 72.2057 85.7422 71.8516 85.9922C71.4974 86.2422 71.2214 86.5703 71.0234 86.9766V93H69.5781V81H71.0234V85.5703ZM83.6094 93C83.526 92.8333 83.4583 92.5365 83.4062 92.1094C82.7344 92.8073 81.9323 93.1562 81 93.1562C80.1667 93.1562 79.4818 92.9219 78.9453 92.4531C78.4141 91.9792 78.1484 91.3802 78.1484 90.6562C78.1484 89.776 78.4818 89.0938 79.1484 88.6094C79.8203 88.1198 80.763 87.875 81.9766 87.875H83.3828V87.2109C83.3828 86.7057 83.2318 86.3047 82.9297 86.0078C82.6276 85.7057 82.1823 85.5547 81.5938 85.5547C81.0781 85.5547 80.6458 85.6849 80.2969 85.9453C79.9479 86.2057 79.7734 86.5208 79.7734 86.8906H78.3203C78.3203 86.4688 78.4688 86.0625 78.7656 85.6719C79.0677 85.276 79.474 84.9635 79.9844 84.7344C80.5 84.5052 81.0651 84.3906 81.6797 84.3906C82.6536 84.3906 83.4167 84.6354 83.9688 85.125C84.5208 85.6094 84.8073 86.2786 84.8281 87.1328V91.0234C84.8281 91.7995 84.9271 92.4167 85.125 92.875V93H83.6094ZM81.2109 91.8984C81.6641 91.8984 82.0938 91.7812 82.5 91.5469C82.9062 91.3125 83.2005 91.0078 83.3828 90.6328V88.8984H82.25C80.4792 88.8984 79.5938 89.4167 79.5938 90.4531C79.5938 90.9062 79.7448 91.2604 80.0469 91.5156C80.349 91.7708 80.737 91.8984 81.2109 91.8984ZM88.8281 91.7734H94.2188V93H87.3203V81.625H88.8281V91.7734ZM99.2109 93.1562C98.0651 93.1562 97.1328 92.7812 96.4141 92.0312C95.6953 91.276 95.3359 90.2682 95.3359 89.0078V88.7422C95.3359 87.9036 95.4948 87.1562 95.8125 86.5C96.1354 85.8385 96.5833 85.3229 97.1562 84.9531C97.7344 84.5781 98.3594 84.3906 99.0312 84.3906C100.13 84.3906 100.984 84.7526 101.594 85.4766C102.203 86.2005 102.508 87.237 102.508 88.5859V89.1875H96.7812C96.8021 90.0208 97.0443 90.6953 97.5078 91.2109C97.9766 91.7214 98.5703 91.9766 99.2891 91.9766C99.7995 91.9766 100.232 91.8724 100.586 91.6641C100.94 91.4557 101.25 91.1797 101.516 90.8359L102.398 91.5234C101.69 92.612 100.628 93.1562 99.2109 93.1562ZM99.0312 85.5781C98.4479 85.5781 97.9583 85.7917 97.5625 86.2188C97.1667 86.6406 96.9219 87.2344 96.8281 88H101.062V87.8906C101.021 87.1562 100.823 86.5885 100.469 86.1875C100.115 85.7812 99.6354 85.5781 99.0312 85.5781ZM103.844 88.7031C103.844 87.3854 104.148 86.3385 104.758 85.5625C105.367 84.7812 106.174 84.3906 107.18 84.3906C108.211 84.3906 109.016 84.7552 109.594 85.4844L109.664 84.5469H110.984V92.7969C110.984 93.8906 110.659 94.7526 110.008 95.3828C109.362 96.013 108.492 96.3281 107.398 96.3281C106.789 96.3281 106.193 96.1979 105.609 95.9375C105.026 95.6771 104.581 95.3203 104.273 94.8672L105.023 94C105.643 94.7656 106.401 95.1484 107.297 95.1484C108 95.1484 108.547 94.9505 108.938 94.5547C109.333 94.1589 109.531 93.6016 109.531 92.8828V92.1562C108.953 92.8229 108.164 93.1562 107.164 93.1562C106.174 93.1562 105.372 92.7578 104.758 91.9609C104.148 91.1641 103.844 90.0781 103.844 88.7031ZM105.297 88.8672C105.297 89.8203 105.492 90.5703 105.883 91.1172C106.273 91.6589 106.82 91.9297 107.523 91.9297C108.435 91.9297 109.104 91.5156 109.531 90.6875V86.8281C109.089 86.0208 108.424 85.6172 107.539 85.6172C106.836 85.6172 106.286 85.8906 105.891 86.4375C105.495 86.9844 105.297 87.7943 105.297 88.8672ZM114.742 93H113.297V84.5469H114.742V93ZM113.18 82.3047C113.18 82.0703 113.25 81.8724 113.391 81.7109C113.536 81.5495 113.75 81.4688 114.031 81.4688C114.312 81.4688 114.526 81.5495 114.672 81.7109C114.818 81.8724 114.891 82.0703 114.891 82.3047C114.891 82.5391 114.818 82.7344 114.672 82.8906C114.526 83.0469 114.312 83.125 114.031 83.125C113.75 83.125 113.536 83.0469 113.391 82.8906C113.25 82.7344 113.18 82.5391 113.18 82.3047ZM121.984 90.7578C121.984 90.3672 121.836 90.0651 121.539 89.8516C121.247 89.6328 120.734 89.4453 120 89.2891C119.271 89.1328 118.69 88.9453 118.258 88.7266C117.831 88.5078 117.513 88.2474 117.305 87.9453C117.102 87.6432 117 87.2839 117 86.8672C117 86.1745 117.292 85.5885 117.875 85.1094C118.464 84.6302 119.214 84.3906 120.125 84.3906C121.083 84.3906 121.859 84.638 122.453 85.1328C123.052 85.6276 123.352 86.2604 123.352 87.0312H121.898C121.898 86.6354 121.729 86.2943 121.391 86.0078C121.057 85.7214 120.635 85.5781 120.125 85.5781C119.599 85.5781 119.188 85.6927 118.891 85.9219C118.594 86.151 118.445 86.4505 118.445 86.8203C118.445 87.1693 118.583 87.4323 118.859 87.6094C119.135 87.7865 119.633 87.9557 120.352 88.1172C121.076 88.2786 121.661 88.4714 122.109 88.6953C122.557 88.9193 122.888 89.1901 123.102 89.5078C123.32 89.8203 123.43 90.2031 123.43 90.6562C123.43 91.4115 123.128 92.0182 122.523 92.4766C121.919 92.9297 121.135 93.1562 120.172 93.1562C119.495 93.1562 118.896 93.0365 118.375 92.7969C117.854 92.5573 117.445 92.224 117.148 91.7969C116.857 91.3646 116.711 90.8984 116.711 90.3984H118.156C118.182 90.8828 118.375 91.2682 118.734 91.5547C119.099 91.8359 119.578 91.9766 120.172 91.9766C120.719 91.9766 121.156 91.8672 121.484 91.6484C121.818 91.4245 121.984 91.1276 121.984 90.7578Z" fill="#001529"/>
</svg>
