<svg width="131" height="76" viewBox="0 0 131 76" fill="none" xmlns="http://www.w3.org/2000/svg">
<path d="M11.3337 13.8643H4.01777L2.37468 18.4218H0L6.6683 0.959468H8.68319L15.3635 18.4218H13.0008L11.3337 13.8643ZM4.71339 11.9694H10.6501L7.67575 3.80189L4.71339 11.9694Z" fill="url(#paint0_linear)"/>
<path d="M22.5715 16.8507C23.3631 16.8507 24.0547 16.6108 24.6463 16.1311C25.238 15.6513 25.5658 15.0517 25.6298 14.3321H27.7286C27.6887 15.0756 27.4328 15.7833 26.9611 16.4549C26.4893 17.1265 25.8577 17.6622 25.0661 18.062C24.2825 18.4618 23.451 18.6617 22.5715 18.6617C20.8045 18.6617 19.3972 18.074 18.3498 16.8986C17.3104 15.7153 16.7907 14.1002 16.7907 12.0533V11.6815C16.7907 10.4182 17.0226 9.29485 17.4863 8.31139C17.9501 7.32794 18.6137 6.56436 19.4772 6.02066C20.3487 5.47696 21.3762 5.20511 22.5595 5.20511C24.0147 5.20511 25.222 5.64087 26.1815 6.51239C27.149 7.38391 27.6647 8.51528 27.7286 9.90651H25.6298C25.5658 9.06697 25.246 8.37936 24.6703 7.84365C24.1026 7.29995 23.399 7.0281 22.5595 7.0281C21.4321 7.0281 20.5566 7.43588 19.933 8.25143C19.3173 9.05898 19.0095 10.2303 19.0095 11.7655V12.1852C19.0095 13.6804 19.3173 14.8318 19.933 15.6393C20.5486 16.4469 21.4281 16.8507 22.5715 16.8507Z" fill="url(#paint1_linear)"/>
<path d="M29.6356 11.8135C29.6356 10.5422 29.8834 9.39879 30.3792 8.38335C30.8829 7.36792 31.5785 6.58435 32.466 6.03266C33.3615 5.48096 34.3809 5.20511 35.5243 5.20511C37.2913 5.20511 38.7185 5.81678 39.8059 7.0401C40.9013 8.26342 41.449 9.89052 41.449 11.9214V12.0773C41.449 13.3406 41.2052 14.476 40.7174 15.4834C40.2377 16.4829 39.5461 17.2624 38.6426 17.8221C37.7471 18.3818 36.7156 18.6617 35.5483 18.6617C33.7893 18.6617 32.3621 18.05 31.2667 16.8267C30.1793 15.6034 29.6356 13.9842 29.6356 11.9694V11.8135ZM31.8663 12.0773C31.8663 13.5165 32.1982 14.6719 32.8618 15.5434C33.5334 16.4149 34.4289 16.8507 35.5483 16.8507C36.6757 16.8507 37.5712 16.4109 38.2348 15.5314C38.8984 14.6439 39.2303 13.4046 39.2303 11.8135C39.2303 10.3902 38.8904 9.23888 38.2108 8.35937C37.5392 7.47186 36.6437 7.0281 35.5243 7.0281C34.4289 7.0281 33.5454 7.46386 32.8738 8.33538C32.2022 9.2069 31.8663 10.4542 31.8663 12.0773Z" fill="url(#paint2_linear)"/>
<path d="M46.3183 5.44498L46.3783 6.88418C47.3298 5.7648 48.6131 5.20511 50.2282 5.20511C52.0432 5.20511 53.2785 5.90073 53.9341 7.29196C54.3659 6.6683 54.9256 6.16458 55.6132 5.7808C56.3088 5.39701 57.1283 5.20511 58.0718 5.20511C60.9182 5.20511 62.3654 6.71228 62.4134 9.72661V18.4218H60.1946V9.85854C60.1946 8.93105 59.9828 8.23943 59.559 7.78369C59.1352 7.31994 58.4236 7.08807 57.4242 7.08807C56.6006 7.08807 55.917 7.33593 55.3733 7.83166C54.8296 8.31939 54.5138 8.97902 54.4258 9.81056V18.4218H52.1951V9.9185C52.1951 8.03155 51.2716 7.08807 49.4246 7.08807C47.9694 7.08807 46.974 7.70773 46.4383 8.94704V18.4218H44.2195V5.44498H46.3183Z" fill="url(#paint3_linear)"/>
<path d="M76.7335 12.0773C76.7335 14.0522 76.2817 15.6433 75.3782 16.8507C74.4747 18.058 73.2514 18.6617 71.7083 18.6617C70.1331 18.6617 68.8938 18.1619 67.9903 17.1625V23.411H65.7715V5.44498H67.7984L67.9064 6.88418C68.8099 5.7648 70.0652 5.20511 71.6723 5.20511C73.2314 5.20511 74.4627 5.79279 75.3662 6.96814C76.2777 8.14349 76.7335 9.77858 76.7335 11.8734V12.0773ZM74.5147 11.8254C74.5147 10.3623 74.2029 9.2069 73.5792 8.35937C72.9556 7.51184 72.1 7.08807 71.0126 7.08807C69.6694 7.08807 68.6619 7.68374 67.9903 8.87508V15.0756C68.6539 16.259 69.6694 16.8507 71.0366 16.8507C72.1 16.8507 72.9436 16.4309 73.5672 15.5914C74.1989 14.7438 74.5147 13.4885 74.5147 11.8254Z" fill="url(#paint4_linear)"/>
<path d="M87.5755 18.4218C87.4475 18.1659 87.3436 17.7102 87.2636 17.0545C86.2322 18.126 85.0009 18.6617 83.5697 18.6617C82.2904 18.6617 81.239 18.3019 80.4154 17.5823C79.5999 16.8547 79.1921 15.9352 79.1921 14.8238C79.1921 13.4725 79.7038 12.4251 80.7273 11.6815C81.7587 10.9299 83.2059 10.5542 85.0688 10.5542H87.2277V9.53472C87.2277 8.75914 86.9958 8.14349 86.532 7.68774C86.0683 7.224 85.3847 6.99212 84.4812 6.99212C83.6896 6.99212 83.026 7.19201 82.4903 7.59179C81.9546 7.99157 81.6867 8.4753 81.6867 9.04299H79.456C79.456 8.39535 79.6838 7.77169 80.1396 7.17202C80.6033 6.56436 81.227 6.08463 82.0105 5.73282C82.8021 5.38102 83.6696 5.20511 84.6131 5.20511C86.1083 5.20511 87.2796 5.58091 88.1272 6.33249C88.9747 7.07608 89.4144 8.10351 89.4464 9.41478V15.3875C89.4464 16.5788 89.5983 17.5263 89.9022 18.2299V18.4218H87.5755ZM83.8935 16.7307C84.5891 16.7307 85.2487 16.5508 85.8724 16.191C86.4961 15.8312 86.9478 15.3635 87.2277 14.7878V12.1253H85.4886C82.7701 12.1253 81.4109 12.9208 81.4109 14.512C81.4109 15.2076 81.6427 15.7513 82.1065 16.1431C82.5702 16.5348 83.1659 16.7307 83.8935 16.7307Z" fill="url(#paint5_linear)"/>
<path d="M95.0233 5.44498L95.0953 7.07608C96.0867 5.82877 97.382 5.20511 98.9811 5.20511C101.724 5.20511 103.107 6.75226 103.131 9.84654V18.4218H100.912V9.83455C100.904 8.89907 100.688 8.20745 100.264 7.7597C99.8487 7.31195 99.197 7.08807 98.3095 7.08807C97.5899 7.08807 96.9583 7.27996 96.4146 7.66375C95.8709 8.04754 95.4471 8.55126 95.1433 9.17491V18.4218H92.9245V5.44498H95.0233Z" fill="url(#paint6_linear)"/>
<path d="M108.696 7.01611C109.679 5.80878 110.958 5.20511 112.534 5.20511C115.276 5.20511 116.659 6.75226 116.683 9.84654V18.4218H114.465V9.83455C114.457 8.89907 114.241 8.20745 113.817 7.7597C113.401 7.31195 112.75 7.08807 111.862 7.08807C111.142 7.08807 110.511 7.27996 109.967 7.66375C109.423 8.04754 109 8.55126 108.696 9.17491V18.4218H106.477V0H108.696V7.01611Z" fill="url(#paint7_linear)"/>
<path d="M128.017 18.4218C127.889 18.1659 127.785 17.7102 127.705 17.0545C126.674 18.126 125.442 18.6617 124.011 18.6617C122.732 18.6617 121.681 18.3019 120.857 17.5823C120.041 16.8547 119.634 15.9352 119.634 14.8238C119.634 13.4725 120.145 12.4251 121.169 11.6815C122.2 10.9299 123.647 10.5542 125.51 10.5542H127.669V9.53472C127.669 8.75914 127.437 8.14349 126.974 7.68774C126.51 7.224 125.826 6.99212 124.923 6.99212C124.131 6.99212 123.468 7.19201 122.932 7.59179C122.396 7.99157 122.128 8.4753 122.128 9.04299H119.898C119.898 8.39535 120.125 7.77169 120.581 7.17202C121.045 6.56436 121.669 6.08463 122.452 5.73282C123.244 5.38102 124.111 5.20511 125.055 5.20511C126.55 5.20511 127.721 5.58091 128.569 6.33249C129.416 7.07608 129.856 8.10351 129.888 9.41478V15.3875C129.888 16.5788 130.04 17.5263 130.344 18.2299V18.4218H128.017ZM124.335 16.7307C125.031 16.7307 125.69 16.5508 126.314 16.191C126.938 15.8312 127.389 15.3635 127.669 14.7878V12.1253H125.93C123.212 12.1253 121.852 12.9208 121.852 14.512C121.852 15.2076 122.084 15.7513 122.548 16.1431C123.012 16.5348 123.607 16.7307 124.335 16.7307Z" fill="url(#paint8_linear)"/>
<path d="M6.05509 59.1143H25.0196V63.4294H0.750534V23.4116H6.05509V59.1143Z" fill="url(#paint9_linear)"/>
<path d="M42.5823 63.9791C38.5512 63.9791 35.2714 62.6598 32.7428 60.0213C30.2142 57.3644 28.9499 53.8189 28.9499 49.3847V48.4502C28.9499 45.5002 29.5088 42.8708 30.6265 40.5621C31.7625 38.235 33.3383 36.421 35.3539 35.1201C37.3877 33.8008 39.5865 33.1412 41.9502 33.1412C45.8164 33.1412 48.8214 34.4146 50.9652 36.9616C53.109 39.5085 54.1809 43.1548 54.1809 47.9005V50.0168H34.0346C34.1079 52.9485 34.9599 55.3214 36.5907 57.1354C38.2398 58.9311 40.3286 59.8289 42.8572 59.8289C44.6529 59.8289 46.1737 59.4624 47.4197 58.7295C48.6656 57.9966 49.7559 57.0254 50.6904 55.8161L53.7961 58.2348C51.3042 62.0643 47.5663 63.9791 42.5823 63.9791ZM41.9502 37.3189C39.898 37.3189 38.1756 38.0701 36.7831 39.5726C35.3905 41.0568 34.5293 43.1456 34.1995 45.8391H49.0962V45.4544C48.9497 42.8708 48.2534 40.8736 47.0074 39.4627C45.7614 38.0335 44.0757 37.3189 41.9502 37.3189Z" fill="url(#paint10_linear)"/>
<path d="M58.8808 48.3128C58.8808 43.677 59.9527 39.994 62.0965 37.2639C64.2403 34.5154 67.0804 33.1412 70.6168 33.1412C74.2448 33.1412 77.0757 34.4238 79.1096 36.989L79.357 33.6909H84.0019V62.7148C84.0019 66.5627 82.8567 69.5951 80.5663 71.8122C78.2942 74.0293 75.2342 75.1379 71.3864 75.1379C69.2426 75.1379 67.1446 74.6798 65.0924 73.7637C63.0402 72.8475 61.4735 71.5924 60.3925 69.9983L63.031 66.9474C65.2115 69.6409 67.8775 70.9877 71.0291 70.9877C73.5027 70.9877 75.4266 70.2914 76.8009 68.8989C78.1934 67.5063 78.8897 65.5457 78.8897 63.0171V60.461C76.8559 62.8064 74.0799 63.9791 70.5618 63.9791C67.0804 63.9791 64.2587 62.5774 62.0965 59.7739C59.9527 56.9705 58.8808 53.1501 58.8808 48.3128ZM63.993 48.89C63.993 52.2431 64.6801 54.8816 66.0543 56.8056C67.4286 58.7112 69.3525 59.664 71.8261 59.664C75.0327 59.664 77.3872 58.2073 78.8897 55.2939V41.7164C77.3323 38.8763 74.996 37.4563 71.8811 37.4563C69.4075 37.4563 67.4744 38.4183 66.0818 40.3422C64.6893 42.2661 63.993 45.1154 63.993 48.89Z" fill="url(#paint11_linear)"/>
<path d="M97.2221 63.4294H92.1374V33.6909H97.2221V63.4294ZM91.7251 25.8027C91.7251 24.9782 91.9725 24.2819 92.4672 23.7139C92.9802 23.1459 93.7315 22.8619 94.7209 22.8619C95.7104 22.8619 96.4616 23.1459 96.9747 23.7139C97.4877 24.2819 97.7443 24.9782 97.7443 25.8027C97.7443 26.6273 97.4877 27.3144 96.9747 27.8641C96.4616 28.4138 95.7104 28.6886 94.7209 28.6886C93.7315 28.6886 92.9802 28.4138 92.4672 27.8641C91.9725 27.3144 91.7251 26.6273 91.7251 25.8027Z" fill="url(#paint12_linear)"/>
<path d="M122.7 55.5413C122.7 54.167 122.178 53.1043 121.134 52.353C120.108 51.5835 118.303 50.9238 115.719 50.3741C113.154 49.8244 111.111 49.1648 109.59 48.3952C108.088 47.6257 106.97 46.7095 106.237 45.6467C105.522 44.584 105.165 43.3197 105.165 41.8539C105.165 39.4169 106.191 37.3555 108.243 35.6698C110.314 33.984 112.953 33.1412 116.159 33.1412C119.531 33.1412 122.261 34.0115 124.35 35.7522C126.457 37.4929 127.51 39.7192 127.51 42.431H122.398C122.398 41.0385 121.803 39.8383 120.612 38.8305C119.439 37.8228 117.955 37.3189 116.159 37.3189C114.308 37.3189 112.861 37.722 111.816 38.5282C110.772 39.3344 110.25 40.388 110.25 41.6889C110.25 42.9166 110.735 43.8419 111.707 44.4649C112.678 45.0879 114.428 45.6834 116.956 46.2514C119.503 46.8194 121.564 47.4974 123.14 48.2853C124.716 49.0732 125.88 50.026 126.631 51.1437C127.4 52.2431 127.785 53.5898 127.785 55.184C127.785 57.8408 126.722 59.9755 124.597 61.5879C122.471 63.182 119.714 63.9791 116.324 63.9791C113.942 63.9791 111.835 63.5577 110.002 62.7148C108.17 61.8719 106.732 60.6992 105.687 59.1967C104.661 57.6759 104.148 56.036 104.148 54.277H109.233C109.325 55.981 110.002 57.3369 111.267 58.3447C112.549 59.3342 114.235 59.8289 116.324 59.8289C118.248 59.8289 119.787 59.4441 120.941 58.6745C122.114 57.8866 122.7 56.8422 122.7 55.5413Z" fill="url(#paint13_linear)"/>
<defs>
<linearGradient id="paint0_linear" x1="65.1719" y1="0" x2="65.1719" y2="23.411" gradientUnits="userSpaceOnUse">
<stop stop-color="#D3EAFF"/>
<stop offset="1" stop-color="white"/>
</linearGradient>
<linearGradient id="paint1_linear" x1="65.1719" y1="0" x2="65.1719" y2="23.411" gradientUnits="userSpaceOnUse">
<stop stop-color="#D3EAFF"/>
<stop offset="1" stop-color="white"/>
</linearGradient>
<linearGradient id="paint2_linear" x1="65.1719" y1="0" x2="65.1719" y2="23.411" gradientUnits="userSpaceOnUse">
<stop stop-color="#D3EAFF"/>
<stop offset="1" stop-color="white"/>
</linearGradient>
<linearGradient id="paint3_linear" x1="65.1719" y1="0" x2="65.1719" y2="23.411" gradientUnits="userSpaceOnUse">
<stop stop-color="#D3EAFF"/>
<stop offset="1" stop-color="white"/>
</linearGradient>
<linearGradient id="paint4_linear" x1="65.1719" y1="0" x2="65.1719" y2="23.411" gradientUnits="userSpaceOnUse">
<stop stop-color="#D3EAFF"/>
<stop offset="1" stop-color="white"/>
</linearGradient>
<linearGradient id="paint5_linear" x1="65.1719" y1="0" x2="65.1719" y2="23.411" gradientUnits="userSpaceOnUse">
<stop stop-color="#D3EAFF"/>
<stop offset="1" stop-color="white"/>
</linearGradient>
<linearGradient id="paint6_linear" x1="65.1719" y1="0" x2="65.1719" y2="23.411" gradientUnits="userSpaceOnUse">
<stop stop-color="#D3EAFF"/>
<stop offset="1" stop-color="white"/>
</linearGradient>
<linearGradient id="paint7_linear" x1="65.1719" y1="0" x2="65.1719" y2="23.411" gradientUnits="userSpaceOnUse">
<stop stop-color="#D3EAFF"/>
<stop offset="1" stop-color="white"/>
</linearGradient>
<linearGradient id="paint8_linear" x1="65.1719" y1="0" x2="65.1719" y2="23.411" gradientUnits="userSpaceOnUse">
<stop stop-color="#D3EAFF"/>
<stop offset="1" stop-color="white"/>
</linearGradient>
<linearGradient id="paint9_linear" x1="64.2678" y1="22.8619" x2="64.2678" y2="75.1379" gradientUnits="userSpaceOnUse">
<stop stop-color="#1890FF"/>
<stop offset="1" stop-color="#6CB0EE"/>
</linearGradient>
<linearGradient id="paint10_linear" x1="64.2678" y1="22.8619" x2="64.2678" y2="75.1379" gradientUnits="userSpaceOnUse">
<stop stop-color="#1890FF"/>
<stop offset="1" stop-color="#6CB0EE"/>
</linearGradient>
<linearGradient id="paint11_linear" x1="64.2678" y1="22.8619" x2="64.2678" y2="75.1379" gradientUnits="userSpaceOnUse">
<stop stop-color="#1890FF"/>
<stop offset="1" stop-color="#6CB0EE"/>
</linearGradient>
<linearGradient id="paint12_linear" x1="64.2678" y1="22.8619" x2="64.2678" y2="75.1379" gradientUnits="userSpaceOnUse">
<stop stop-color="#1890FF"/>
<stop offset="1" stop-color="#6CB0EE"/>
</linearGradient>
<linearGradient id="paint13_linear" x1="64.2678" y1="22.8619" x2="64.2678" y2="75.1379" gradientUnits="userSpaceOnUse">
<stop stop-color="#1890FF"/>
<stop offset="1" stop-color="#6CB0EE"/>
</linearGradient>
</defs>
</svg>
